<?xml version="1.0" encoding="UTF-8" standalone="no"?>
<!-- Created with Inkscape (http://www.inkscape.org/) -->

<svg
   width="289.18845mm"
   height="76.377861mm"
   viewBox="0 0 289.18845 76.377861"
   version="1.1"
   id="svg1"
   inkscape:version="1.4.2 (ebf0e940d0, 2025-05-08)"
   sodipodi:docname="signature.svg"
   xmlns:inkscape="http://www.inkscape.org/namespaces/inkscape"
   xmlns:sodipodi="http://sodipodi.sourceforge.net/DTD/sodipodi-0.dtd"
   xmlns="http://www.w3.org/2000/svg"
   xmlns:svg="http://www.w3.org/2000/svg">
  <sodipodi:namedview
     id="namedview1"
     pagecolor="#ffffff"
     bordercolor="#000000"
     borderopacity="0.25"
     inkscape:showpageshadow="2"
     inkscape:pageopacity="0.0"
     inkscape:pagecheckerboard="0"
     inkscape:deskcolor="#d1d1d1"
     inkscape:document-units="mm"
     inkscape:zoom="1.2026515"
     inkscape:cx="507.2126"
     inkscape:cy="98.532285"
     inkscape:window-width="2560"
     inkscape:window-height="1579"
     inkscape:window-x="0"
     inkscape:window-y="0"
     inkscape:window-maximized="1"
     inkscape:current-layer="layer1">
    <inkscape:page
       x="0"
       y="0"
       width="289.18845"
       height="76.377861"
       id="page332"
       margin="5"
       bleed="0" />
  </sodipodi:namedview>
  <defs
     id="defs1" />
  <g
     inkscape:label="Layer 1"
     inkscape:groupmode="layer"
     id="layer1"
     transform="translate(-19.621245,-42.472082)">
    <path
       id="path16"
       style="fill:#000000;fill-opacity:1;stroke-width:0.0806032"
       d="m 50.896856,47.472293 v 1.006141 h 3.540352 v -1.006141 z m 5.165575,0 v 1.006141 h 3.540353 v -1.006141 z m 5.16506,0 v 1.006141 h 3.540352 v -1.006141 z m -13.726294,1.377694 c -0.166244,0 -0.319205,0.04142 -0.45837,0.124541 -0.138538,0.08312 -0.248976,0.193653 -0.330212,0.331245 -0.08155,0.137907 -0.121957,0.289543 -0.121957,0.455787 0,0.163095 0.04041,0.314552 0.121957,0.453719 0.08124,0.138536 0.191674,0.249157 0.330212,0.332279 0.139165,0.08312 0.292126,0.12454 0.45837,0.12454 0.169392,0 0.322957,-0.04142 0.45992,-0.12454 0.137592,-0.08312 0.247116,-0.193743 0.328663,-0.332279 0.08218,-0.139167 0.123506,-0.290624 0.123506,-0.453719 0,-0.166244 -0.04132,-0.31788 -0.123506,-0.455787 -0.08155,-0.137592 -0.191071,-0.248124 -0.328663,-0.331245 -0.136963,-0.08312 -0.290528,-0.124541 -0.45992,-0.124541 z m 20.661271,0 c -0.166244,0 -0.319204,0.04142 -0.45837,0.124541 -0.138537,0.08312 -0.248976,0.193653 -0.330212,0.331245 -0.08155,0.137907 -0.121957,0.289543 -0.121957,0.455787 0,0.163095 0.04041,0.314552 0.121957,0.453719 0.08124,0.138536 0.191675,0.249157 0.330212,0.332279 0.139166,0.08312 0.292126,0.12454 0.45837,0.12454 0.169393,0 0.32244,-0.04142 0.459404,-0.12454 0.137591,-0.08312 0.247631,-0.193743 0.329178,-0.332279 0.08217,-0.139167 0.122991,-0.290624 0.122991,-0.453719 0,-0.166244 -0.04081,-0.31788 -0.122991,-0.455787 -0.08155,-0.137592 -0.191587,-0.248124 -0.329178,-0.331245 -0.136964,-0.08312 -0.290011,-0.124541 -0.459404,-0.124541 z m -24.605734,3.635954 -3.436998,7.132382 1.009757,0.461986 3.429765,-7.131864 z m 28.569833,0 -1.010274,0.462504 3.429248,7.131864 1.010274,-0.461986 z m -30.997074,8.631515 -1.009757,0.461986 3.429248,7.132382 1.010274,-0.462504 z m 33.418631,0 -3.436482,7.131864 1.009758,0.462504 3.429248,-7.132382 z M 52.56342,61.987687 c -0.444261,0 -0.855171,0.07572 -1.232999,0.226859 -0.377197,0.151131 -0.752611,0.390336 -1.12603,0.717786 l 0.511597,0.60048 c 0.315484,-0.275184 0.618377,-0.469159 0.908988,-0.581876 0.290298,-0.113348 0.581258,-0.170016 0.872815,-0.170016 0.326506,0 0.59612,0.05878 0.807703,0.176217 0.211584,0.116812 0.376158,0.289437 0.494544,0.516764 0.118386,0.227641 0.201335,0.507165 0.248562,0.838708 0.04786,0.330914 0.07131,0.710139 0.07131,1.137398 0,0.420018 -0.0032,0.777065 -0.0098,1.07177 -0.0069,0.294076 -0.02116,0.53227 -0.0429,0.715202 -0.02203,0.182302 -0.05543,0.314786 -0.100773,0.397908 -0.04471,0.08312 -0.106283,0.12454 -0.185002,0.12454 -0.074,0 -0.135476,-0.02577 -0.183967,-0.07803 -0.0488,-0.05195 -0.08523,-0.137412 -0.108521,-0.255799 -0.02361,-0.118385 -0.03514,-0.278049 -0.03514,-0.479557 v -2.452043 c -0.223549,-0.122479 -0.453108,-0.213453 -0.68988,-0.272335 -0.236772,-0.05856 -0.464451,-0.08785 -0.682646,-0.08785 -0.594449,0 -1.033054,0.19819 -1.315165,0.594279 -0.281481,0.396404 -0.42168,0.931391 -0.42168,1.604553 0,0.35201 0.04303,0.668735 0.128675,0.950846 0.08564,0.282111 0.22474,0.504879 0.418061,0.66766 0.193951,0.163719 0.451297,0.245463 0.773081,0.245463 0.19647,0 0.368265,-0.03481 0.516247,-0.104387 0.148612,-0.06895 0.275177,-0.161634 0.380338,-0.277502 0.104847,-0.115866 0.187592,-0.241825 0.248047,-0.378788 h 0.03308 c 0.01575,0.153021 0.04673,0.297031 0.09301,0.433048 0.04597,0.136649 0.108556,0.256915 0.187586,0.360185 0.07966,0.10327 0.177653,0.184606 0.293521,0.244429 0.115867,0.06046 0.251155,0.09095 0.406694,0.09095 0.34823,0 0.61513,-0.122978 0.799951,-0.367936 0.18545,-0.245272 0.313019,-0.604023 0.382922,-1.076937 0.06958,-0.472599 0.104387,-1.051896 0.104387,-1.738912 0,-0.408684 -0.02709,-0.787818 -0.08062,-1.136364 -0.05289,-0.349175 -0.138446,-0.662494 -0.256831,-0.940512 -0.118386,-0.277703 -0.276863,-0.51471 -0.474907,-0.71055 C 54.100237,62.39687 53.858319,62.247025 53.572114,62.143755 53.28654,62.039848 52.950349,61.987693 52.56339,61.987693 Z m 10.330636,0 c -0.444261,0 -0.855171,0.07572 -1.232999,0.226859 -0.377198,0.151131 -0.752611,0.390336 -1.12603,0.717786 l 0.511596,0.60048 c 0.315485,-0.275184 0.618377,-0.469159 0.908989,-0.581876 0.290298,-0.113348 0.581257,-0.170016 0.872815,-0.170016 0.326505,0 0.596119,0.05878 0.807702,0.176217 0.211584,0.116812 0.376158,0.289437 0.494544,0.516764 0.118386,0.227641 0.20082,0.507165 0.248047,0.838708 0.04786,0.330914 0.07183,0.710139 0.07183,1.137398 0,0.420018 -0.0032,0.777065 -0.0098,1.07177 -0.0069,0.294076 -0.02116,0.53227 -0.04289,0.715202 -0.02204,0.182302 -0.05543,0.314786 -0.100773,0.397908 -0.04471,0.08312 -0.106283,0.12454 -0.185001,0.12454 -0.074,0 -0.135477,-0.02577 -0.183968,-0.07803 -0.0488,-0.05195 -0.08522,-0.137412 -0.108521,-0.255799 -0.02362,-0.118385 -0.03514,-0.278049 -0.03514,-0.479557 v -2.452043 c -0.223549,-0.122479 -0.453108,-0.213453 -0.68988,-0.272335 -0.236772,-0.05856 -0.464451,-0.08785 -0.682646,-0.08785 -0.594449,0 -1.033054,0.19819 -1.315165,0.594279 -0.281481,0.396404 -0.42168,0.931391 -0.42168,1.604553 0,0.35201 0.04251,0.668735 0.128158,0.950846 0.08564,0.282111 0.225257,0.504879 0.418579,0.66766 0.19395,0.163719 0.451297,0.245463 0.77308,0.245463 0.19647,0 0.368264,-0.03481 0.516246,-0.104387 0.148612,-0.06895 0.275178,-0.161634 0.380339,-0.277502 0.104847,-0.115866 0.187592,-0.241825 0.248047,-0.378788 h 0.03308 c 0.01575,0.153021 0.04673,0.297031 0.09302,0.433048 0.04596,0.136649 0.108556,0.256915 0.187586,0.360185 0.07966,0.10327 0.177653,0.184606 0.293521,0.244429 0.115867,0.06046 0.251155,0.09095 0.406694,0.09095 0.34823,0 0.61513,-0.122978 0.799952,-0.367936 0.185449,-0.245272 0.313028,-0.604023 0.382921,-1.076937 0.06958,-0.472599 0.104387,-1.051896 0.104387,-1.738912 0,-0.408684 -0.02709,-0.787818 -0.08061,-1.136364 -0.05289,-0.349175 -0.138446,-0.662494 -0.256831,-0.940512 -0.118386,-0.277703 -0.276863,-0.51471 -0.474907,-0.71055 -0.197414,-0.196471 -0.439332,-0.346316 -0.725537,-0.449586 -0.285574,-0.103907 -0.621765,-0.156062 -1.008724,-0.156062 z m -6.829041,2.746602 v 1.006657 h 3.540353 v -1.006657 z m -4.009057,0.20929 c 0.106421,0 0.210339,0.02599 0.311092,0.077 v 1.790589 c -0.01102,0.08406 -0.03017,0.170627 -0.05788,0.259415 -0.02708,0.08816 -0.0719,0.163189 -0.134876,0.224276 -0.06234,0.0614 -0.154506,0.09199 -0.276985,0.09199 -0.100753,0 -0.180702,-0.0361 -0.239262,-0.10852 -0.05887,-0.0721 -0.100214,-0.185525 -0.123507,-0.341064 -0.02268,-0.155225 -0.0341,-0.356822 -0.0341,-0.604614 0,-0.522976 0.0383,-0.885248 0.115756,-1.086756 0.07809,-0.201509 0.224719,-0.302307 0.439766,-0.302307 z m 10.330636,0 c 0.106421,0 0.210338,0.02599 0.311091,0.077 v 1.790589 c -0.01102,0.08406 -0.03017,0.170627 -0.05788,0.259415 -0.02708,0.08816 -0.0719,0.163189 -0.134876,0.224276 -0.06234,0.0614 -0.154506,0.09199 -0.276985,0.09199 -0.100753,0 -0.180702,-0.0361 -0.239263,-0.10852 -0.05887,-0.0721 -0.100214,-0.185525 -0.123506,-0.341064 -0.02268,-0.155225 -0.0341,-0.356822 -0.0341,-0.604614 0,-0.522976 0.0383,-0.885248 0.115756,-1.086756 0.07809,-0.201509 0.224719,-0.302307 0.439766,-0.302307 z m -14.882813,1.168404 c -0.166244,0 -0.319205,0.04193 -0.45837,0.125057 -0.138538,0.08312 -0.24846,0.193653 -0.329696,0.331245 -0.08155,0.137907 -0.122473,0.289543 -0.122473,0.455787 0,0.163095 0.04093,0.314036 0.122473,0.453202 0.08124,0.138537 0.191158,0.249674 0.329696,0.332796 0.139165,0.08312 0.292126,0.12454 0.45837,0.12454 0.169392,0 0.322957,-0.04142 0.45992,-0.12454 0.137592,-0.08312 0.247115,-0.194259 0.328662,-0.332796 0.08217,-0.139166 0.123507,-0.290107 0.123507,-0.453202 0,-0.166244 -0.04133,-0.31788 -0.123507,-0.455787 -0.08155,-0.137592 -0.19107,-0.248123 -0.328662,-0.331245 -0.136963,-0.08312 -0.290528,-0.125057 -0.45992,-0.125057 z m 20.661271,0 c -0.166244,0 -0.319205,0.04193 -0.45837,0.125057 -0.138538,0.08312 -0.248459,0.193653 -0.329696,0.331245 -0.08155,0.137907 -0.122472,0.289543 -0.122472,0.455787 0,0.163095 0.04093,0.314036 0.122472,0.453202 0.08124,0.138537 0.191158,0.249674 0.329696,0.332796 0.139165,0.08312 0.292126,0.12454 0.45837,0.12454 0.169392,0 0.322957,-0.04142 0.45992,-0.12454 0.137592,-0.08312 0.247116,-0.194259 0.328663,-0.332796 0.08217,-0.139166 0.123506,-0.290107 0.123506,-0.453202 0,-0.166244 -0.04133,-0.31788 -0.123506,-0.455787 -0.08155,-0.137592 -0.191071,-0.248123 -0.328663,-0.331245 -0.136963,-0.08312 -0.290528,-0.125057 -0.45992,-0.125057 z m -21.281906,3.49281 -0.502295,0.968416 1.929082,0.769979 0.355017,-0.655257 z m 20.661272,0 -0.502812,0.968416 1.929599,0.769979 0.355016,-0.655257 z m -23.987684,0.14366 -3.436998,7.132381 1.009757,0.461988 3.429765,-7.131865 z m 7.903395,0 -1.009759,0.462504 3.429249,7.131865 1.010274,-0.461988 z m 12.757877,0 -3.437,7.132381 1.009758,0.461988 3.429765,-7.131865 z m 7.903394,0 -1.009758,0.462504 3.429248,7.131865 1.009758,-0.461988 z m -16.329753,7.185091 v 1.013892 h 4.087089 v -1.013892 z m -17.403072,1.445907 -3.436999,7.132381 1.010273,0.461987 3.429248,-7.131864 z m 5.165576,0 -3.437,7.132381 1.009758,0.461987 3.429765,-7.131864 z m 28.582751,0 -1.009757,0.462504 3.429248,7.131864 1.010274,-0.461987 z m 5.165577,0 -1.010275,0.462504 3.429765,7.131864 1.009758,-0.461987 z m -21.502564,7.185091 v 1.013891 h 4.086572 v -1.013891 z m 17.058391,1.115178 -0.753442,0.678511 c 0.275184,0.299744 0.511495,0.586803 0.707966,0.860413 0.19647,0.273925 0.35683,0.547439 0.482142,0.820104 0.124998,0.272036 0.21707,0.553757 0.275951,0.845944 0.05856,0.291556 0.08836,0.606086 0.08836,0.943612 0,0.450244 -0.04794,0.856736 -0.14366,1.22008 -0.09509,0.363659 -0.255961,0.723733 -0.482658,1.07952 -0.226066,0.355158 -0.535168,0.74582 -0.928109,1.171506 l 0.753443,0.677477 c 0.429779,-0.370271 0.802477,-0.761336 1.118278,-1.172538 0.316429,-0.411202 0.560457,-0.860727 0.731738,-1.348755 0.171911,-0.487711 0.257865,-1.030324 0.257865,-1.62729 0,-0.596967 -0.08595,-1.139265 -0.257865,-1.627291 C 74.537037,88.7133 74.293009,88.263774 73.97658,87.852258 73.660779,87.441056 73.288081,87.049991 72.858302,86.67972 Z m -31.728296,0.331246 -1.010274,0.461986 3.429248,7.132382 1.010274,-0.462505 z m -9.726022,0.05684 v 7.480681 h 1.201477 v -7.480681 z m 46.492253,0 v 7.480681 h 1.201477 v -7.480681 z m 3.726905,7.128248 v 1.013891 h 4.087089 v -1.013891 z m -50.238278,1.302245 -0.502812,0.968934 1.929598,0.769462 0.355018,-0.655257 z m 15.495695,0 -0.502295,0.968934 1.929081,0.769462 0.355534,-0.655257 z m -18.822107,0.143661 -3.436999,7.13239 1.009757,0.46198 3.429248,-7.131866 z m 7.903393,0 -1.009757,0.462504 3.429248,7.131866 1.009757,-0.46198 z m 43.759604,0 -3.437,7.13239 1.009757,0.46198 3.429765,-7.131866 z m 7.903393,0 -1.009757,0.462504 3.429248,7.131866 1.010274,-0.46198 z m -36.270137,1.671216 -0.572058,0.928109 2.657718,1.512568 -2.657718,1.561667 0.58446,0.87798 3.183784,-1.97714 v -0.924493 z m 18.139461,0 -3.20549,1.987475 v 0.915709 l 3.183786,1.97714 0.58446,-0.91933 -2.652034,-1.520317 2.652034,-1.548741 z m -29.200802,5.513874 v 1.01389 h 4.087089 v -1.01389 z m 31.002242,0 v 1.01389 h 4.086573 v -1.01389 z m -45.664396,1.44643 -1.009757,0.46198 3.429248,7.13187 1.009757,-0.462 z m 17.922937,0 -3.437,7.13185 1.010275,0.462 3.429248,-7.13187 z m 28.564665,0 -1.009758,0.46198 3.429248,7.13187 1.010275,-0.462 z m 17.922936,0 -3.436998,7.13185 1.010274,0.462 3.429248,-7.13187 z m -43.157572,0.61287 0.15658,2.28462 h 0.91519 l 0.155029,-2.28462 z m 20.661272,0 0.15658,2.28462 h 0.915188 l 0.15503,-2.28462 z m -16.648079,3.00396 v 1.00614 h 3.540351 v -1.00614 z m 5.165058,0 v 1.00614 h 3.540353 v -1.00614 z m 5.165576,0 v 1.00614 h 3.540353 v -1.00614 z m -31.265275,3.56774 v 1.01389 h 4.08709 v -1.01389 z m 5.165577,0 v 1.01389 h 4.086573 v -1.01389 z m 41.322025,0 v 1.01389 h 4.087089 v -1.01389 z m 5.165577,0 v 1.01389 h 4.086572 v -1.01389 z"
       inkscape:label="Logo" />
    <text
       xml:space="preserve"
       style="font-size:13.624px;text-align:start;writing-mode:lr-tb;direction:ltr;text-anchor:start;fill:#000000;stroke-width:2.78916;stroke-linecap:round;stroke-linejoin:round"
       x="91.054451"
       y="59.926044"
       id="text1"
       inkscape:label="Text"><tspan
         sodipodi:role="line"
         id="tspan1"
         style="font-style:normal;font-variant:normal;font-weight:bold;font-stretch:normal;font-family:'DejaVu Sans Mono';-inkscape-font-specification:'DejaVu Sans Mono Bold';stroke-width:2.78916;fill:#000000"
         x="91.054451"
         y="59.926044"> ${NAME}</tspan><tspan
         sodipodi:role="line"
         style="font-style:normal;font-variant:normal;font-weight:bold;font-stretch:normal;font-family:'DejaVu Sans Mono';-inkscape-font-specification:'DejaVu Sans Mono Bold';stroke-width:2.78916;fill:#000000"
         x="91.054451"
         y="76.956047"
         id="tspan4" /><tspan
         sodipodi:role="line"
         style="font-style:normal;font-variant:normal;font-weight:normal;font-stretch:normal;font-family:'DejaVu Sans Mono';-inkscape-font-specification:'DejaVu Sans Mono';stroke-width:2.78916;fill:#000000"
         x="91.054451"
         y="93.986046"
         id="tspan2"> ${ROLE}</tspan><tspan
         sodipodi:role="line"
         style="font-style:normal;font-variant:normal;font-weight:normal;font-stretch:normal;font-family:'DejaVu Sans Mono';-inkscape-font-specification:'DejaVu Sans Mono';stroke-width:2.78916;fill:#000000"
         x="91.054451"
         y="111.01604"
         id="tspan3"> Linux Users Group CWRUnix</tspan></text>
  </g>
</svg>
