<svg xmlns="http://www.w3.org/2000/svg" xmlns:xlink="http://www.w3.org/1999/xlink" width="2300" zoomAndPan="magnify" viewBox="0 0 1724.88 1124.99995" height="1500" preserveAspectRatio="xMidYMid meet" version="1.0"><defs><g/></defs><g fill="#000000" fill-opacity="1"><g transform="translate(733.907935, 171.432502)"><g/></g></g><g fill="#000000" fill-opacity="1"><g transform="translate(801.985869, 171.432502)"><g/></g></g><g fill="#000000" fill-opacity="1"><g transform="translate(870.063803, 171.432502)"><g/></g></g><g fill="#000000" fill-opacity="1"><g transform="translate(938.141741, 171.432502)"><g/></g></g><g fill="#000000" fill-opacity="1"><g transform="translate(1006.219671, 171.432502)"><g/></g></g><g fill="#000000" fill-opacity="1"><g transform="translate(1074.327665, 171.432502)"><g><path d="M 20.3125 -10.1875 C 20.3125 -12.375 20.847656 -14.375 21.921875 -16.1875 C 23.003906 -18 24.457031 -19.453125 26.28125 -20.546875 C 28.113281 -21.648438 30.128906 -22.203125 32.328125 -22.203125 C 34.554688 -22.203125 36.578125 -21.648438 38.390625 -20.546875 C 40.203125 -19.453125 41.644531 -18 42.71875 -16.1875 C 43.800781 -14.375 44.34375 -12.375 44.34375 -10.1875 C 44.34375 -8.03125 43.800781 -6.035156 42.71875 -4.203125 C 41.644531 -2.367188 40.203125 -0.90625 38.390625 0.1875 C 36.578125 1.28125 34.554688 1.828125 32.328125 1.828125 C 30.128906 1.828125 28.113281 1.28125 26.28125 0.1875 C 24.457031 -0.90625 23.003906 -2.367188 21.921875 -4.203125 C 20.847656 -6.035156 20.3125 -8.03125 20.3125 -10.1875 Z M 20.3125 -10.1875 "/></g></g></g><g fill="#000000" fill-opacity="1"><g transform="translate(1142.405598, 171.432502)"><g><path d="M 9 -27.09375 L 9 -40.359375 L 55.65625 -40.359375 L 55.65625 -27.09375 Z M 9 -27.09375 "/></g></g></g><g fill="#000000" fill-opacity="1"><g transform="translate(1210.483532, 171.432502)"><g><path d="M 9 -27.09375 L 9 -40.359375 L 55.65625 -40.359375 L 55.65625 -27.09375 Z M 9 -27.09375 "/></g></g></g><g fill="#000000" fill-opacity="1"><g transform="translate(1278.561471, 171.432502)"><g><path d="M 9 -27.09375 L 9 -40.359375 L 55.65625 -40.359375 L 55.65625 -27.09375 Z M 9 -27.09375 "/></g></g></g><g fill="#000000" fill-opacity="1"><g transform="translate(1346.6394, 171.432502)"><g><path d="M 20.3125 -10.1875 C 20.3125 -12.375 20.847656 -14.375 21.921875 -16.1875 C 23.003906 -18 24.457031 -19.453125 26.28125 -20.546875 C 28.113281 -21.648438 30.128906 -22.203125 32.328125 -22.203125 C 34.554688 -22.203125 36.578125 -21.648438 38.390625 -20.546875 C 40.203125 -19.453125 41.644531 -18 42.71875 -16.1875 C 43.800781 -14.375 44.34375 -12.375 44.34375 -10.1875 C 44.34375 -8.03125 43.800781 -6.035156 42.71875 -4.203125 C 41.644531 -2.367188 40.203125 -0.90625 38.390625 0.1875 C 36.578125 1.28125 34.554688 1.828125 32.328125 1.828125 C 30.128906 1.828125 28.113281 1.28125 26.28125 0.1875 C 24.457031 -0.90625 23.003906 -2.367188 21.921875 -4.203125 C 20.847656 -6.035156 20.3125 -8.03125 20.3125 -10.1875 Z M 20.3125 -10.1875 "/></g></g></g><g fill="#000000" fill-opacity="1"><g transform="translate(733.907935, 285.19014)"><g/></g></g><g fill="#000000" fill-opacity="1"><g transform="translate(801.985869, 285.19014)"><g/></g></g><g fill="#000000" fill-opacity="1"><g transform="translate(870.063803, 285.19014)"><g/></g></g><g fill="#000000" fill-opacity="1"><g transform="translate(938.141741, 285.19014)"><g/></g></g><g fill="#000000" fill-opacity="1"><g transform="translate(1006.286378, 285.19014)"><g><path d="M 16.375 12.0625 L 3.078125 5.984375 L 48.375 -88.03125 L 61.578125 -81.9375 Z M 16.375 12.0625 "/></g></g></g><g fill="#000000" fill-opacity="1"><g transform="translate(1074.398763, 285.19014)"><g/></g></g><g fill="#000000" fill-opacity="1"><g transform="translate(1142.476697, 285.19014)"><g/></g></g><g fill="#000000" fill-opacity="1"><g transform="translate(1210.554631, 285.19014)"><g/></g></g><g fill="#000000" fill-opacity="1"><g transform="translate(1278.632569, 285.19014)"><g/></g></g><g fill="#000000" fill-opacity="1"><g transform="translate(1346.710498, 285.19014)"><g/></g></g><g fill="#000000" fill-opacity="1"><g transform="translate(1414.818492, 285.19014)"><g><path d="M 3.078125 -81.9375 L 16.375 -88.03125 L 61.578125 5.984375 L 48.265625 12.0625 Z M 3.078125 -81.9375 "/></g></g></g><g fill="#000000" fill-opacity="1"><g transform="translate(733.907935, 398.947777)"><g/></g></g><g fill="#000000" fill-opacity="1"><g transform="translate(801.985869, 398.947777)"><g/></g></g><g fill="#000000" fill-opacity="1"><g transform="translate(870.063803, 398.947777)"><g/></g></g><g fill="#000000" fill-opacity="1"><g transform="translate(938.141741, 398.947777)"><g/></g></g><g fill="#000000" fill-opacity="1"><g transform="translate(1006.286378, 398.947777)"><g><path d="M 3.078125 -81.9375 L 16.375 -88.03125 L 61.578125 5.984375 L 48.265625 12.0625 Z M 3.078125 -81.9375 "/></g></g></g><g fill="#000000" fill-opacity="1"><g transform="translate(1074.364312, 398.947777)"><g><path d="M 20.3125 -10.1875 C 20.3125 -12.375 20.847656 -14.375 21.921875 -16.1875 C 23.003906 -18 24.457031 -19.453125 26.28125 -20.546875 C 28.113281 -21.648438 30.128906 -22.203125 32.328125 -22.203125 C 34.554688 -22.203125 36.578125 -21.648438 38.390625 -20.546875 C 40.203125 -19.453125 41.644531 -18 42.71875 -16.1875 C 43.800781 -14.375 44.34375 -12.375 44.34375 -10.1875 C 44.34375 -8.03125 43.800781 -6.035156 42.71875 -4.203125 C 41.644531 -2.367188 40.203125 -0.90625 38.390625 0.1875 C 36.578125 1.28125 34.554688 1.828125 32.328125 1.828125 C 30.128906 1.828125 28.113281 1.28125 26.28125 0.1875 C 24.457031 -0.90625 23.003906 -2.367188 21.921875 -4.203125 C 20.847656 -6.035156 20.3125 -8.03125 20.3125 -10.1875 Z M 20.3125 -10.1875 "/></g></g></g><g fill="#000000" fill-opacity="1"><g transform="translate(1142.442246, 398.947777)"><g><path d="M 30.921875 -76.5625 C 36.023438 -76.5625 40.460938 -75.878906 44.234375 -74.515625 C 48.003906 -73.148438 51.191406 -71.171875 53.796875 -68.578125 C 56.398438 -65.992188 58.484375 -62.867188 60.046875 -59.203125 C 61.609375 -55.546875 62.738281 -51.414062 63.4375 -46.8125 C 64.132812 -42.21875 64.484375 -37.226562 64.484375 -31.84375 C 64.484375 -22.789062 64.023438 -15.144531 63.109375 -8.90625 C 62.191406 -2.675781 60.507812 2.050781 58.0625 5.28125 C 55.625 8.507812 52.109375 10.125 47.515625 10.125 C 45.472656 10.125 43.6875 9.726562 42.15625 8.9375 C 40.632812 8.15625 39.351562 7.078125 38.3125 5.703125 C 37.269531 4.335938 36.441406 2.757812 35.828125 0.96875 C 35.210938 -0.820312 34.800781 -2.722656 34.59375 -4.734375 L 34.15625 -4.734375 C 33.363281 -2.941406 32.273438 -1.285156 30.890625 0.234375 C 29.515625 1.765625 27.847656 2.988281 25.890625 3.90625 C 23.929688 4.820312 21.660156 5.28125 19.078125 5.28125 C 14.835938 5.28125 11.441406 4.203125 8.890625 2.046875 C 6.335938 -0.109375 4.492188 -3.046875 3.359375 -6.765625 C 2.234375 -10.484375 1.671875 -14.65625 1.671875 -19.28125 C 1.671875 -28.15625 3.53125 -35.203125 7.25 -40.421875 C 10.96875 -45.648438 16.738281 -48.265625 24.5625 -48.265625 C 27.4375 -48.265625 30.4375 -47.878906 33.5625 -47.109375 C 36.6875 -46.335938 39.722656 -45.144531 42.671875 -43.53125 L 42.671875 -11.203125 C 42.671875 -8.546875 42.820312 -6.4375 43.125 -4.875 C 43.425781 -3.3125 43.898438 -2.1875 44.546875 -1.5 C 45.203125 -0.820312 46.015625 -0.484375 46.984375 -0.484375 C 48.023438 -0.484375 48.835938 -1.03125 49.421875 -2.125 C 50.015625 -3.21875 50.457031 -4.96875 50.75 -7.375 C 51.039062 -9.78125 51.226562 -12.921875 51.3125 -16.796875 C 51.40625 -20.679688 51.453125 -25.390625 51.453125 -30.921875 C 51.453125 -36.554688 51.132812 -41.554688 50.5 -45.921875 C 49.875 -50.285156 48.78125 -53.96875 47.21875 -56.96875 C 45.65625 -59.96875 43.484375 -62.238281 40.703125 -63.78125 C 37.921875 -65.332031 34.375 -66.109375 30.0625 -66.109375 C 26.21875 -66.109375 22.382812 -65.363281 18.5625 -63.875 C 14.738281 -62.382812 10.742188 -59.820312 6.578125 -56.1875 L -0.15625 -64.109375 C 4.757812 -68.421875 9.703125 -71.570312 14.671875 -73.5625 C 19.648438 -75.5625 25.066406 -76.5625 30.921875 -76.5625 Z M 24.25 -37.609375 C 21.40625 -37.609375 19.472656 -36.273438 18.453125 -33.609375 C 17.429688 -30.953125 16.921875 -26.175781 16.921875 -19.28125 C 16.921875 -16.019531 17.070312 -13.363281 17.375 -11.3125 C 17.675781 -9.269531 18.210938 -7.769531 18.984375 -6.8125 C 19.765625 -5.863281 20.816406 -5.390625 22.140625 -5.390625 C 23.753906 -5.390625 24.972656 -5.789062 25.796875 -6.59375 C 26.628906 -7.40625 27.222656 -8.394531 27.578125 -9.5625 C 27.941406 -10.726562 28.195312 -11.867188 28.34375 -12.984375 L 28.34375 -36.578125 C 27.007812 -37.265625 25.644531 -37.609375 24.25 -37.609375 Z M 24.25 -37.609375 "/></g></g></g><g fill="#000000" fill-opacity="1"><g transform="translate(1210.520184, 398.947777)"><g><path d="M 9 -27.09375 L 9 -40.359375 L 55.65625 -40.359375 L 55.65625 -27.09375 Z M 9 -27.09375 "/></g></g></g><g fill="#000000" fill-opacity="1"><g transform="translate(1278.598113, 398.947777)"><g><path d="M 30.921875 -76.5625 C 36.023438 -76.5625 40.460938 -75.878906 44.234375 -74.515625 C 48.003906 -73.148438 51.191406 -71.171875 53.796875 -68.578125 C 56.398438 -65.992188 58.484375 -62.867188 60.046875 -59.203125 C 61.609375 -55.546875 62.738281 -51.414062 63.4375 -46.8125 C 64.132812 -42.21875 64.484375 -37.226562 64.484375 -31.84375 C 64.484375 -22.789062 64.023438 -15.144531 63.109375 -8.90625 C 62.191406 -2.675781 60.507812 2.050781 58.0625 5.28125 C 55.625 8.507812 52.109375 10.125 47.515625 10.125 C 45.472656 10.125 43.6875 9.726562 42.15625 8.9375 C 40.632812 8.15625 39.351562 7.078125 38.3125 5.703125 C 37.269531 4.335938 36.441406 2.757812 35.828125 0.96875 C 35.210938 -0.820312 34.800781 -2.722656 34.59375 -4.734375 L 34.15625 -4.734375 C 33.363281 -2.941406 32.273438 -1.285156 30.890625 0.234375 C 29.515625 1.765625 27.847656 2.988281 25.890625 3.90625 C 23.929688 4.820312 21.660156 5.28125 19.078125 5.28125 C 14.835938 5.28125 11.441406 4.203125 8.890625 2.046875 C 6.335938 -0.109375 4.492188 -3.046875 3.359375 -6.765625 C 2.234375 -10.484375 1.671875 -14.65625 1.671875 -19.28125 C 1.671875 -28.15625 3.53125 -35.203125 7.25 -40.421875 C 10.96875 -45.648438 16.738281 -48.265625 24.5625 -48.265625 C 27.4375 -48.265625 30.4375 -47.878906 33.5625 -47.109375 C 36.6875 -46.335938 39.722656 -45.144531 42.671875 -43.53125 L 42.671875 -11.203125 C 42.671875 -8.546875 42.820312 -6.4375 43.125 -4.875 C 43.425781 -3.3125 43.898438 -2.1875 44.546875 -1.5 C 45.203125 -0.820312 46.015625 -0.484375 46.984375 -0.484375 C 48.023438 -0.484375 48.835938 -1.03125 49.421875 -2.125 C 50.015625 -3.21875 50.457031 -4.96875 50.75 -7.375 C 51.039062 -9.78125 51.226562 -12.921875 51.3125 -16.796875 C 51.40625 -20.679688 51.453125 -25.390625 51.453125 -30.921875 C 51.453125 -36.554688 51.132812 -41.554688 50.5 -45.921875 C 49.875 -50.285156 48.78125 -53.96875 47.21875 -56.96875 C 45.65625 -59.96875 43.484375 -62.238281 40.703125 -63.78125 C 37.921875 -65.332031 34.375 -66.109375 30.0625 -66.109375 C 26.21875 -66.109375 22.382812 -65.363281 18.5625 -63.875 C 14.738281 -62.382812 10.742188 -59.820312 6.578125 -56.1875 L -0.15625 -64.109375 C 4.757812 -68.421875 9.703125 -71.570312 14.671875 -73.5625 C 19.648438 -75.5625 25.066406 -76.5625 30.921875 -76.5625 Z M 24.25 -37.609375 C 21.40625 -37.609375 19.472656 -36.273438 18.453125 -33.609375 C 17.429688 -30.953125 16.921875 -26.175781 16.921875 -19.28125 C 16.921875 -16.019531 17.070312 -13.363281 17.375 -11.3125 C 17.675781 -9.269531 18.210938 -7.769531 18.984375 -6.8125 C 19.765625 -5.863281 20.816406 -5.390625 22.140625 -5.390625 C 23.753906 -5.390625 24.972656 -5.789062 25.796875 -6.59375 C 26.628906 -7.40625 27.222656 -8.394531 27.578125 -9.5625 C 27.941406 -10.726562 28.195312 -11.867188 28.34375 -12.984375 L 28.34375 -36.578125 C 27.007812 -37.265625 25.644531 -37.609375 24.25 -37.609375 Z M 24.25 -37.609375 "/></g></g></g><g fill="#000000" fill-opacity="1"><g transform="translate(1346.676043, 398.947777)"><g><path d="M 20.3125 -10.1875 C 20.3125 -12.375 20.847656 -14.375 21.921875 -16.1875 C 23.003906 -18 24.457031 -19.453125 26.28125 -20.546875 C 28.113281 -21.648438 30.128906 -22.203125 32.328125 -22.203125 C 34.554688 -22.203125 36.578125 -21.648438 38.390625 -20.546875 C 40.203125 -19.453125 41.644531 -18 42.71875 -16.1875 C 43.800781 -14.375 44.34375 -12.375 44.34375 -10.1875 C 44.34375 -8.03125 43.800781 -6.035156 42.71875 -4.203125 C 41.644531 -2.367188 40.203125 -0.90625 38.390625 0.1875 C 36.578125 1.28125 34.554688 1.828125 32.328125 1.828125 C 30.128906 1.828125 28.113281 1.28125 26.28125 0.1875 C 24.457031 -0.90625 23.003906 -2.367188 21.921875 -4.203125 C 20.847656 -6.035156 20.3125 -8.03125 20.3125 -10.1875 Z M 20.3125 -10.1875 "/></g></g></g><g fill="#000000" fill-opacity="1"><g transform="translate(1414.753989, 398.947777)"><g><path d="M 16.375 12.0625 L 3.078125 5.984375 L 48.375 -88.03125 L 61.578125 -81.9375 Z M 16.375 12.0625 "/></g></g></g><g fill="#000000" fill-opacity="1"><g transform="translate(733.907935, 512.705414)"><g/></g></g><g fill="#000000" fill-opacity="1"><g transform="translate(801.985869, 512.705414)"><g/></g></g><g fill="#000000" fill-opacity="1"><g transform="translate(870.063803, 512.705414)"><g/></g></g><g fill="#000000" fill-opacity="1"><g transform="translate(938.141741, 512.705414)"><g/></g></g><g fill="#000000" fill-opacity="1"><g transform="translate(1006.286378, 512.705414)"><g><path d="M 16.375 12.0625 L 3.078125 5.984375 L 48.375 -88.03125 L 61.578125 -81.9375 Z M 16.375 12.0625 "/></g></g></g><g fill="#000000" fill-opacity="1"><g transform="translate(1074.364312, 512.705414)"><g><path d="M 42.9375 -67.015625 L 17.515625 -77.15625 L 24.140625 -89.921875 L 47.625 -75.640625 Z M 42.9375 -67.015625 "/></g></g></g><g fill="#000000" fill-opacity="1"><g transform="translate(1142.442246, 512.705414)"><g><path d="M 3.078125 -81.9375 L 16.375 -88.03125 L 61.578125 5.984375 L 48.265625 12.0625 Z M 3.078125 -81.9375 "/></g></g></g><g fill="#000000" fill-opacity="1"><g transform="translate(1210.520184, 512.705414)"><g><path d="M 5.390625 20.046875 L 5.390625 6.6875 L 59.265625 6.6875 L 59.265625 20.046875 Z M 5.390625 20.046875 "/></g></g></g><g fill="#000000" fill-opacity="1"><g transform="translate(1278.598113, 512.705414)"><g><path d="M 16.375 12.0625 L 3.078125 5.984375 L 48.375 -88.03125 L 61.578125 -81.9375 Z M 16.375 12.0625 "/></g></g></g><g fill="#000000" fill-opacity="1"><g transform="translate(1346.676043, 512.705414)"><g><path d="M 42.9375 -67.015625 L 17.515625 -77.15625 L 24.140625 -89.921875 L 47.625 -75.640625 Z M 42.9375 -67.015625 "/></g></g></g><g fill="#000000" fill-opacity="1"><g transform="translate(1414.753989, 512.705414)"><g><path d="M 3.078125 -81.9375 L 16.375 -88.03125 L 61.578125 5.984375 L 48.265625 12.0625 Z M 3.078125 -81.9375 "/></g></g></g><g fill="#000000" fill-opacity="1"><g transform="translate(733.907935, 626.463051)"><g/></g></g><g fill="#000000" fill-opacity="1"><g transform="translate(801.985869, 626.463051)"><g/></g></g><g fill="#000000" fill-opacity="1"><g transform="translate(870.063803, 626.463051)"><g/></g></g><g fill="#000000" fill-opacity="1"><g transform="translate(938.173993, 626.463051)"><g><path d="M 16.375 12.0625 L 3.078125 5.984375 L 48.375 -88.03125 L 61.578125 -81.9375 Z M 16.375 12.0625 "/></g></g></g><g fill="#000000" fill-opacity="1"><g transform="translate(1006.251927, 626.463051)"><g><path d="M 16.375 12.0625 L 3.078125 5.984375 L 48.375 -88.03125 L 61.578125 -81.9375 Z M 16.375 12.0625 "/></g></g></g><g fill="#000000" fill-opacity="1"><g transform="translate(1074.398763, 626.463051)"><g/></g></g><g fill="#000000" fill-opacity="1"><g transform="translate(1142.476697, 626.463051)"><g/></g></g><g fill="#000000" fill-opacity="1"><g transform="translate(1210.623534, 626.463051)"><g><path d="M 5.390625 20.046875 L 5.390625 6.6875 L 59.265625 6.6875 L 59.265625 20.046875 Z M 5.390625 20.046875 "/></g></g></g><g fill="#000000" fill-opacity="1"><g transform="translate(1278.735919, 626.463051)"><g/></g></g><g fill="#000000" fill-opacity="1"><g transform="translate(1346.813853, 626.463051)"><g/></g></g><g fill="#000000" fill-opacity="1"><g transform="translate(1414.960689, 626.463051)"><g><path d="M 3.078125 -81.9375 L 16.375 -88.03125 L 61.578125 5.984375 L 48.265625 12.0625 Z M 3.078125 -81.9375 "/></g></g></g><g fill="#000000" fill-opacity="1"><g transform="translate(1483.038623, 626.463051)"><g><path d="M 3.078125 -81.9375 L 16.375 -88.03125 L 61.578125 5.984375 L 48.265625 12.0625 Z M 3.078125 -81.9375 "/></g></g></g><g fill="#000000" fill-opacity="1"><g transform="translate(733.907935, 740.220688)"><g/></g></g><g fill="#000000" fill-opacity="1"><g transform="translate(801.985869, 740.220688)"><g/></g></g><g fill="#000000" fill-opacity="1"><g transform="translate(870.132706, 740.220688)"><g><path d="M 40.1875 -87.28125 L 40.1875 11.3125 L 24.34375 11.3125 L 24.34375 -87.28125 Z M 40.1875 -87.28125 "/></g></g></g><g fill="#000000" fill-opacity="1"><g transform="translate(938.21064, 740.220688)"><g/></g></g><g fill="#000000" fill-opacity="1"><g transform="translate(1006.288574, 740.220688)"><g><path d="M 3.078125 -81.9375 L 16.375 -88.03125 L 61.578125 5.984375 L 48.265625 12.0625 Z M 3.078125 -81.9375 "/></g></g></g><g fill="#000000" fill-opacity="1"><g transform="translate(1074.398763, 740.220688)"><g/></g></g><g fill="#000000" fill-opacity="1"><g transform="translate(1142.476697, 740.220688)"><g/></g></g><g fill="#000000" fill-opacity="1"><g transform="translate(1210.554631, 740.220688)"><g/></g></g><g fill="#000000" fill-opacity="1"><g transform="translate(1278.632569, 740.220688)"><g/></g></g><g fill="#000000" fill-opacity="1"><g transform="translate(1346.710498, 740.220688)"><g/></g></g><g fill="#000000" fill-opacity="1"><g transform="translate(1414.818492, 740.220688)"><g><path d="M 36.578125 -37.71875 C 36.578125 -42.164062 36.191406 -46.3125 35.421875 -50.15625 C 34.648438 -54 33.4375 -57.71875 31.78125 -61.3125 C 30.132812 -64.90625 28.015625 -68.503906 25.421875 -72.109375 C 22.835938 -75.722656 19.734375 -79.503906 16.109375 -83.453125 L 26.015625 -92.390625 C 31.691406 -87.503906 36.613281 -82.347656 40.78125 -76.921875 C 44.945312 -71.503906 48.160156 -65.582031 50.421875 -59.15625 C 52.691406 -52.726562 53.828125 -45.582031 53.828125 -37.71875 C 53.828125 -29.84375 52.691406 -22.691406 50.421875 -16.265625 C 48.160156 -9.835938 44.945312 -3.914062 40.78125 1.5 C 36.613281 6.925781 31.691406 12.082031 26.015625 16.96875 L 16.109375 8.03125 C 21.273438 2.425781 25.347656 -2.71875 28.328125 -7.40625 C 31.316406 -12.09375 33.4375 -16.832031 34.6875 -21.625 C 35.945312 -26.425781 36.578125 -31.789062 36.578125 -37.71875 Z M 36.578125 -37.71875 "/></g></g></g><g fill="#000000" fill-opacity="1"><g transform="translate(1482.896426, 740.220688)"><g><path d="M 40.1875 -87.28125 L 40.1875 11.3125 L 24.34375 11.3125 L 24.34375 -87.28125 Z M 40.1875 -87.28125 "/></g></g></g><g fill="#000000" fill-opacity="1"><g transform="translate(1550.97436, 740.220688)"><g><path d="M 5.390625 20.046875 L 5.390625 6.6875 L 59.265625 6.6875 L 59.265625 20.046875 Z M 5.390625 20.046875 "/></g></g></g><g fill="#000000" fill-opacity="1"><g transform="translate(733.907935, 853.978325)"><g/></g></g><g fill="#000000" fill-opacity="1"><g transform="translate(802.020321, 853.978325)"><g><path d="M 16.375 12.0625 L 3.078125 5.984375 L 48.375 -88.03125 L 61.578125 -81.9375 Z M 16.375 12.0625 "/></g></g></g><g fill="#000000" fill-opacity="1"><g transform="translate(870.098255, 853.978325)"><g><path d="M 42.9375 -67.015625 L 17.515625 -77.15625 L 24.140625 -89.921875 L 47.625 -75.640625 Z M 42.9375 -67.015625 "/></g></g></g><g fill="#000000" fill-opacity="1"><g transform="translate(938.176189, 853.978325)"><g><path d="M 3.078125 -81.9375 L 16.375 -88.03125 L 61.578125 5.984375 L 48.265625 12.0625 Z M 3.078125 -81.9375 "/></g></g></g><g fill="#000000" fill-opacity="1"><g transform="translate(1006.254127, 853.978325)"><g><path d="M 5.390625 20.046875 L 5.390625 6.6875 L 59.265625 6.6875 L 59.265625 20.046875 Z M 5.390625 20.046875 "/></g></g></g><g fill="#000000" fill-opacity="1"><g transform="translate(1074.332056, 853.978325)"><g><path d="M 42.9375 -67.015625 L 17.515625 -77.15625 L 24.140625 -89.921875 L 47.625 -75.640625 Z M 42.9375 -67.015625 "/></g></g></g><g fill="#000000" fill-opacity="1"><g transform="translate(1142.409985, 853.978325)"><g><path d="M 15.03125 -66 L 57.15625 -39.921875 L 57.15625 -27.75 L 15.1875 -1.671875 L 7.484375 -13.25 L 42.5 -33.828125 L 7.484375 -53.765625 Z M 15.03125 -66 "/></g></g></g><g fill="#000000" fill-opacity="1"><g transform="translate(1210.552435, 853.978325)"><g/></g></g><g fill="#000000" fill-opacity="1"><g transform="translate(1278.630369, 853.978325)"><g/></g></g><g fill="#000000" fill-opacity="1"><g transform="translate(1346.777205, 853.978325)"><g><path d="M 49.734375 -66 L 57.15625 -54.25 L 22.203125 -33.828125 L 57.15625 -13.796875 L 49.453125 -1.671875 L 7.484375 -27.75 L 7.484375 -39.8125 Z M 49.734375 -66 "/></g></g></g><g fill="#000000" fill-opacity="1"><g transform="translate(1414.855139, 853.978325)"><g><path d="M 5.390625 20.046875 L 5.390625 6.6875 L 59.265625 6.6875 L 59.265625 20.046875 Z M 5.390625 20.046875 "/></g></g></g><g fill="#000000" fill-opacity="1"><g transform="translate(1482.933073, 853.978325)"><g><path d="M 16.375 12.0625 L 3.078125 5.984375 L 48.375 -88.03125 L 61.578125 -81.9375 Z M 16.375 12.0625 "/></g></g></g><g fill="#000000" fill-opacity="1"><g transform="translate(1551.011011, 853.978325)"><g/></g></g><g fill="#000000" fill-opacity="1"><g transform="translate(1619.088941, 853.978325)"><g><path d="M 3.078125 -81.9375 L 16.375 -88.03125 L 61.578125 5.984375 L 48.265625 12.0625 Z M 3.078125 -81.9375 "/></g></g></g><g fill="#000000" fill-opacity="1"><g transform="translate(733.907935, 967.735962)"><g/></g></g><g fill="#000000" fill-opacity="1"><g transform="translate(802.020321, 967.735962)"><g><path d="M 3.078125 -81.9375 L 16.375 -88.03125 L 61.578125 5.984375 L 48.265625 12.0625 Z M 3.078125 -81.9375 "/></g></g></g><g fill="#000000" fill-opacity="1"><g transform="translate(870.098255, 967.735962)"><g><path d="M 5.390625 20.046875 L 5.390625 6.6875 L 59.265625 6.6875 L 59.265625 20.046875 Z M 5.390625 20.046875 "/></g></g></g><g fill="#000000" fill-opacity="1"><g transform="translate(938.176189, 967.735962)"><g><path d="M 5.390625 20.046875 L 5.390625 6.6875 L 59.265625 6.6875 L 59.265625 20.046875 Z M 5.390625 20.046875 "/></g></g></g><g fill="#000000" fill-opacity="1"><g transform="translate(1006.254127, 967.735962)"><g><path d="M 16.375 12.0625 L 3.078125 5.984375 L 48.375 -88.03125 L 61.578125 -81.9375 Z M 16.375 12.0625 "/></g></g></g><g fill="#000000" fill-opacity="1"><g transform="translate(1074.332056, 967.735962)"><g><path d="M 26.234375 -49.828125 L 24.1875 -79.953125 L 40.359375 -79.953125 L 38.3125 -49.828125 Z M 26.234375 -49.828125 "/></g></g></g><g fill="#000000" fill-opacity="1"><g transform="translate(1142.409985, 967.735962)"><g><path d="M 9 -27.09375 L 9 -40.359375 L 55.65625 -40.359375 L 55.65625 -27.09375 Z M 9 -27.09375 "/></g></g></g><g fill="#000000" fill-opacity="1"><g transform="translate(1210.487932, 967.735962)"><g><path d="M 9 -27.09375 L 9 -40.359375 L 55.65625 -40.359375 L 55.65625 -27.09375 Z M 9 -27.09375 "/></g></g></g><g fill="#000000" fill-opacity="1"><g transform="translate(1278.565879, 967.735962)"><g><path d="M 9 -27.09375 L 9 -40.359375 L 55.65625 -40.359375 L 55.65625 -27.09375 Z M 9 -27.09375 "/></g></g></g><g fill="#000000" fill-opacity="1"><g transform="translate(1346.643826, 967.735962)"><g><path d="M 26.234375 -49.828125 L 24.1875 -79.953125 L 40.359375 -79.953125 L 38.3125 -49.828125 Z M 26.234375 -49.828125 "/></g></g></g><g fill="#000000" fill-opacity="1"><g transform="translate(1414.721772, 967.735962)"><g><path d="M 3.078125 -81.9375 L 16.375 -88.03125 L 61.578125 5.984375 L 48.265625 12.0625 Z M 3.078125 -81.9375 "/></g></g></g><g fill="#000000" fill-opacity="1"><g transform="translate(1482.799719, 967.735962)"><g><path d="M 5.390625 20.046875 L 5.390625 6.6875 L 59.265625 6.6875 L 59.265625 20.046875 Z M 5.390625 20.046875 "/></g></g></g><g fill="#000000" fill-opacity="1"><g transform="translate(1550.877666, 967.735962)"><g><path d="M 5.390625 20.046875 L 5.390625 6.6875 L 59.265625 6.6875 L 59.265625 20.046875 Z M 5.390625 20.046875 "/></g></g></g><g fill="#000000" fill-opacity="1"><g transform="translate(1618.955612, 967.735962)"><g><path d="M 16.375 12.0625 L 3.078125 5.984375 L 48.375 -88.03125 L 61.578125 -81.9375 Z M 16.375 12.0625 "/></g></g></g><g fill="#000000" fill-opacity="1"><g transform="translate(733.907935, 1081.4936)"><g/></g></g><g fill="#000000" fill-opacity="1"><g transform="translate(42.818153, 363.763766)"><g><path d="M 94.203125 -186.953125 C 107.265625 -186.953125 118.378906 -185.21875 127.546875 -181.75 C 136.710938 -178.289062 145.113281 -173.398438 152.75 -167.078125 L 131.5625 -141.5625 C 126.5625 -145.6875 121.035156 -148.953125 114.984375 -151.359375 C 108.929688 -153.773438 102.351562 -154.984375 95.25 -154.984375 C 87.625 -154.984375 80.648438 -152.8125 74.328125 -148.46875 C 68.015625 -144.125 62.972656 -137.28125 59.203125 -127.9375 C 55.429688 -118.601562 53.546875 -106.476562 53.546875 -91.5625 C 53.546875 -76.914062 55.363281 -64.96875 59 -55.71875 C 62.644531 -46.46875 67.664062 -39.671875 74.0625 -35.328125 C 80.46875 -30.984375 87.796875 -28.8125 96.046875 -28.8125 C 105.160156 -28.8125 112.742188 -30.519531 118.796875 -33.9375 C 124.847656 -37.363281 130.421875 -41.09375 135.515625 -45.125 L 155.109375 -20.125 C 148.265625 -13.375 139.84375 -7.585938 129.84375 -2.765625 C 119.851562 2.054688 107.796875 4.46875 93.671875 4.46875 C 77.179688 4.46875 62.554688 0.804688 49.796875 -6.515625 C 37.035156 -13.835938 27.035156 -24.625 19.796875 -38.875 C 12.566406 -53.125 8.953125 -70.6875 8.953125 -91.5625 C 8.953125 -111.914062 12.695312 -129.195312 20.1875 -143.40625 C 27.6875 -157.613281 37.882812 -168.421875 50.78125 -175.828125 C 63.675781 -183.242188 78.148438 -186.953125 94.203125 -186.953125 Z M 94.203125 -186.953125 "/></g></g></g><g fill="#000000" fill-opacity="1"><g transform="translate(200.694508, 363.763766)"><g><path d="M 158.671875 -182.34375 L 137.34375 0 L 92.484375 0 L 79.203125 -130.375 L 64.59375 0 L 18.9375 0 L -0.796875 -182.34375 L 39.59375 -182.34375 L 45.78125 -36.84375 L 60.90625 -161.296875 L 98.015625 -161.296875 L 112.09375 -36.84375 L 121.171875 -182.34375 Z M 158.671875 -182.34375 "/></g></g></g><g fill="#000000" fill-opacity="1"><g transform="translate(358.570863, 363.763766)"><g><path d="M 147.75 -126.953125 C 147.75 -118.273438 146.125 -110.691406 142.875 -104.203125 C 139.632812 -97.710938 135.25 -92.226562 129.71875 -87.75 C 124.195312 -83.28125 118.015625 -79.6875 111.171875 -76.96875 L 158.921875 0 L 110.125 0 L 70.65625 -69.734375 L 58.40625 -69.734375 L 58.40625 0 L 15.265625 0 L 15.265625 -182.34375 L 72.625 -182.34375 C 97.445312 -182.34375 116.171875 -177.828125 128.796875 -168.796875 C 141.429688 -159.765625 147.75 -145.816406 147.75 -126.953125 Z M 103.28125 -126.953125 C 103.28125 -135.722656 100.710938 -142.101562 95.578125 -146.09375 C 90.453125 -150.09375 82.84375 -152.09375 72.75 -152.09375 L 58.40625 -152.09375 L 58.40625 -99.328125 L 74.46875 -99.328125 C 83.851562 -99.328125 91 -101.519531 95.90625 -105.90625 C 100.820312 -110.289062 103.28125 -117.304688 103.28125 -126.953125 Z M 103.28125 -126.953125 "/></g></g></g><g fill="#000000" fill-opacity="1"><g transform="translate(516.44721, 363.763766)"><g><path d="M 146.828125 -182.34375 L 146.828125 -61.046875 C 146.828125 -48.585938 144.300781 -37.425781 139.25 -27.5625 C 134.207031 -17.695312 126.664062 -9.890625 116.625 -4.140625 C 106.582031 1.597656 94.019531 4.46875 78.9375 4.46875 C 63.757812 4.46875 51.148438 1.707031 41.109375 -3.8125 C 31.066406 -9.34375 23.546875 -17.019531 18.546875 -26.84375 C 13.546875 -36.664062 11.046875 -48.066406 11.046875 -61.046875 L 11.046875 -182.34375 L 54.328125 -182.34375 L 54.328125 -77.09375 C 54.328125 -60.695312 55.816406 -48.351562 58.796875 -40.0625 C 61.785156 -31.769531 68.5 -27.625 78.9375 -27.625 C 89.375 -27.625 96.082031 -31.769531 99.0625 -40.0625 C 102.050781 -48.351562 103.546875 -60.695312 103.546875 -77.09375 L 103.546875 -182.34375 Z M 146.828125 -182.34375 "/></g></g></g><g fill="#000000" fill-opacity="1"><g transform="translate(42.818153, 650.243824)"><g><path d="M 24.46875 0 L 24.46875 -182.34375 L 67.625 -182.34375 L 67.625 -34.078125 L 146.6875 -34.078125 L 142.21875 0 Z M 24.46875 0 "/></g></g></g><g fill="#000000" fill-opacity="1"><g transform="translate(200.694508, 650.243824)"><g><path d="M 138.140625 -182.34375 L 138.140625 -150.765625 L 100.515625 -150.765625 L 100.515625 -31.703125 L 138.140625 -31.703125 L 138.140625 0 L 19.734375 0 L 19.734375 -31.703125 L 57.359375 -31.703125 L 57.359375 -150.765625 L 19.734375 -150.765625 L 19.734375 -182.34375 Z M 138.140625 -182.34375 "/></g></g></g><g fill="#000000" fill-opacity="1"><g transform="translate(358.570863, 650.243824)"><g><path d="M 91.828125 0 L 43.8125 -146.6875 C 44.425781 -142.738281 45.101562 -137.976562 45.84375 -132.40625 C 46.59375 -126.84375 47.316406 -120.660156 48.015625 -113.859375 C 48.722656 -107.066406 49.296875 -99.851562 49.734375 -92.21875 C 50.171875 -84.59375 50.390625 -76.789062 50.390625 -68.8125 L 50.390625 0 L 13.6875 0 L 13.6875 -182.34375 L 67.484375 -182.34375 L 114.0625 -36.4375 C 113.101562 -41.96875 112.117188 -48.566406 111.109375 -56.234375 C 110.097656 -63.910156 109.238281 -72.484375 108.53125 -81.953125 C 107.832031 -91.429688 107.484375 -101.609375 107.484375 -112.484375 L 107.484375 -182.34375 L 144.1875 -182.34375 L 144.1875 0 Z M 91.828125 0 "/></g></g></g><g fill="#000000" fill-opacity="1"><g transform="translate(516.44721, 650.243824)"><g><path d="M 146.828125 -182.34375 L 146.828125 -61.046875 C 146.828125 -48.585938 144.300781 -37.425781 139.25 -27.5625 C 134.207031 -17.695312 126.664062 -9.890625 116.625 -4.140625 C 106.582031 1.597656 94.019531 4.46875 78.9375 4.46875 C 63.757812 4.46875 51.148438 1.707031 41.109375 -3.8125 C 31.066406 -9.34375 23.546875 -17.019531 18.546875 -26.84375 C 13.546875 -36.664062 11.046875 -48.066406 11.046875 -61.046875 L 11.046875 -182.34375 L 54.328125 -182.34375 L 54.328125 -77.09375 C 54.328125 -60.695312 55.816406 -48.351562 58.796875 -40.0625 C 61.785156 -31.769531 68.5 -27.625 78.9375 -27.625 C 89.375 -27.625 96.082031 -31.769531 99.0625 -40.0625 C 102.050781 -48.351562 103.546875 -60.695312 103.546875 -77.09375 L 103.546875 -182.34375 Z M 146.828125 -182.34375 "/></g></g></g><g fill="#000000" fill-opacity="1"><g transform="translate(674.32358, 650.243824)"><g><path d="M 5 -182.34375 L 51.4375 -182.34375 L 78.9375 -123.796875 L 107.09375 -182.34375 L 152.609375 -182.34375 L 104.203125 -98.671875 L 157.078125 0 L 110.640625 0 L 78.40625 -69.59375 L 46.703125 0 L 0.921875 0 L 52.75 -96.828125 Z M 5 -182.34375 "/></g></g></g><g fill="#000000" fill-opacity="1"><g transform="translate(42.818153, 936.723881)"><g><path d="M 94.203125 -186.953125 C 107.265625 -186.953125 118.378906 -185.21875 127.546875 -181.75 C 136.710938 -178.289062 145.113281 -173.398438 152.75 -167.078125 L 131.5625 -141.5625 C 126.5625 -145.6875 121.035156 -148.953125 114.984375 -151.359375 C 108.929688 -153.773438 102.351562 -154.984375 95.25 -154.984375 C 87.625 -154.984375 80.648438 -152.8125 74.328125 -148.46875 C 68.015625 -144.125 62.972656 -137.28125 59.203125 -127.9375 C 55.429688 -118.601562 53.546875 -106.476562 53.546875 -91.5625 C 53.546875 -76.914062 55.363281 -64.96875 59 -55.71875 C 62.644531 -46.46875 67.664062 -39.671875 74.0625 -35.328125 C 80.46875 -30.984375 87.796875 -28.8125 96.046875 -28.8125 C 105.160156 -28.8125 112.742188 -30.519531 118.796875 -33.9375 C 124.847656 -37.363281 130.421875 -41.09375 135.515625 -45.125 L 155.109375 -20.125 C 148.265625 -13.375 139.84375 -7.585938 129.84375 -2.765625 C 119.851562 2.054688 107.796875 4.46875 93.671875 4.46875 C 77.179688 4.46875 62.554688 0.804688 49.796875 -6.515625 C 37.035156 -13.835938 27.035156 -24.625 19.796875 -38.875 C 12.566406 -53.125 8.953125 -70.6875 8.953125 -91.5625 C 8.953125 -111.914062 12.695312 -129.195312 20.1875 -143.40625 C 27.6875 -157.613281 37.882812 -168.421875 50.78125 -175.828125 C 63.675781 -183.242188 78.148438 -186.953125 94.203125 -186.953125 Z M 94.203125 -186.953125 "/></g></g></g><g fill="#000000" fill-opacity="1"><g transform="translate(200.694508, 936.723881)"><g><path d="M 24.46875 0 L 24.46875 -182.34375 L 67.625 -182.34375 L 67.625 -34.078125 L 146.6875 -34.078125 L 142.21875 0 Z M 24.46875 0 "/></g></g></g><g fill="#000000" fill-opacity="1"><g transform="translate(358.570863, 936.723881)"><g><path d="M 146.828125 -182.34375 L 146.828125 -61.046875 C 146.828125 -48.585938 144.300781 -37.425781 139.25 -27.5625 C 134.207031 -17.695312 126.664062 -9.890625 116.625 -4.140625 C 106.582031 1.597656 94.019531 4.46875 78.9375 4.46875 C 63.757812 4.46875 51.148438 1.707031 41.109375 -3.8125 C 31.066406 -9.34375 23.546875 -17.019531 18.546875 -26.84375 C 13.546875 -36.664062 11.046875 -48.066406 11.046875 -61.046875 L 11.046875 -182.34375 L 54.328125 -182.34375 L 54.328125 -77.09375 C 54.328125 -60.695312 55.816406 -48.351562 58.796875 -40.0625 C 61.785156 -31.769531 68.5 -27.625 78.9375 -27.625 C 89.375 -27.625 96.082031 -31.769531 99.0625 -40.0625 C 102.050781 -48.351562 103.546875 -60.695312 103.546875 -77.09375 L 103.546875 -182.34375 Z M 146.828125 -182.34375 "/></g></g></g><g fill="#000000" fill-opacity="1"><g transform="translate(516.44721, 936.723881)"><g><path d="M 105.78125 -55.125 C 105.78125 -61.53125 104.53125 -66.59375 102.03125 -70.3125 C 99.53125 -74.039062 96.019531 -76.691406 91.5 -78.265625 C 86.976562 -79.847656 81.691406 -80.640625 75.640625 -80.640625 L 57.890625 -80.640625 L 57.890625 -31.4375 L 73.8125 -31.4375 C 78.019531 -31.4375 82.03125 -31.742188 85.84375 -32.359375 C 89.65625 -32.972656 93.070312 -34.113281 96.09375 -35.78125 C 99.125 -37.445312 101.492188 -39.835938 103.203125 -42.953125 C 104.921875 -46.066406 105.78125 -50.125 105.78125 -55.125 Z M 98.9375 -131.4375 C 98.9375 -138.625 96.675781 -143.816406 92.15625 -147.015625 C 87.644531 -150.222656 80.648438 -151.828125 71.171875 -151.828125 L 57.890625 -151.828125 L 57.890625 -109.59375 L 72.484375 -109.59375 C 81.785156 -109.59375 88.519531 -111.300781 92.6875 -114.71875 C 96.851562 -118.144531 98.9375 -123.71875 98.9375 -131.4375 Z M 150.25 -53.421875 C 150.25 -42.890625 148.226562 -34.160156 144.1875 -27.234375 C 140.15625 -20.304688 134.628906 -14.867188 127.609375 -10.921875 C 120.597656 -6.972656 112.597656 -4.164062 103.609375 -2.5 C 94.617188 -0.832031 85.164062 0 75.25 0 L 14.734375 0 L 14.734375 -182.34375 L 72.484375 -182.34375 C 81.867188 -182.34375 90.75 -181.570312 99.125 -180.03125 C 107.507812 -178.5 114.945312 -175.957031 121.4375 -172.40625 C 127.925781 -168.851562 133.03125 -164.070312 136.75 -158.0625 C 140.476562 -152.0625 142.34375 -144.628906 142.34375 -135.765625 C 142.34375 -128.492188 140.804688 -122.203125 137.734375 -116.890625 C 134.671875 -111.585938 130.59375 -107.242188 125.5 -103.859375 C 120.414062 -100.484375 114.894531 -98.050781 108.9375 -96.5625 C 115.425781 -95.507812 121.847656 -93.46875 128.203125 -90.4375 C 134.566406 -87.414062 139.832031 -82.921875 144 -76.953125 C 148.164062 -70.992188 150.25 -63.148438 150.25 -53.421875 Z M 150.25 -53.421875 "/></g></g></g></svg>