<svg xmlns="http://www.w3.org/2000/svg" xmlns:xlink="http://www.w3.org/1999/xlink" width="1500" zoomAndPan="magnify" viewBox="0 0 1125 1124.99995" height="1500" preserveAspectRatio="xMidYMid meet" version="1.0"><defs><g/></defs><g fill="#000000" fill-opacity="1"><g transform="translate(80.475978, 166.295322)"><g/></g></g><g fill="#000000" fill-opacity="1"><g transform="translate(144.559095, 166.295322)"><g/></g></g><g fill="#000000" fill-opacity="1"><g transform="translate(208.642212, 166.295322)"><g/></g></g><g fill="#000000" fill-opacity="1"><g transform="translate(272.725333, 166.295322)"><g/></g></g><g fill="#000000" fill-opacity="1"><g transform="translate(336.808446, 166.295322)"><g/></g></g><g fill="#000000" fill-opacity="1"><g transform="translate(400.919859, 166.295322)"><g><path d="M 19.125 -9.578125 C 19.125 -11.640625 19.628906 -13.523438 20.640625 -15.234375 C 21.648438 -16.941406 23.015625 -18.3125 24.734375 -19.34375 C 26.460938 -20.375 28.359375 -20.890625 30.421875 -20.890625 C 32.523438 -20.890625 34.425781 -20.375 36.125 -19.34375 C 37.832031 -18.3125 39.191406 -16.941406 40.203125 -15.234375 C 41.222656 -13.523438 41.734375 -11.640625 41.734375 -9.578125 C 41.734375 -7.554688 41.222656 -5.679688 40.203125 -3.953125 C 39.191406 -2.234375 37.832031 -0.859375 36.125 0.171875 C 34.425781 1.203125 32.523438 1.71875 30.421875 1.71875 C 28.359375 1.71875 26.460938 1.203125 24.734375 0.171875 C 23.015625 -0.859375 21.648438 -2.234375 20.640625 -3.953125 C 19.628906 -5.679688 19.125 -7.554688 19.125 -9.578125 Z M 19.125 -9.578125 "/></g></g></g><g fill="#000000" fill-opacity="1"><g transform="translate(465.002976, 166.295322)"><g><path d="M 8.46875 -25.5 L 8.46875 -37.984375 L 52.390625 -37.984375 L 52.390625 -25.5 Z M 8.46875 -25.5 "/></g></g></g><g fill="#000000" fill-opacity="1"><g transform="translate(529.086093, 166.295322)"><g><path d="M 8.46875 -25.5 L 8.46875 -37.984375 L 52.390625 -37.984375 L 52.390625 -25.5 Z M 8.46875 -25.5 "/></g></g></g><g fill="#000000" fill-opacity="1"><g transform="translate(593.169214, 166.295322)"><g><path d="M 8.46875 -25.5 L 8.46875 -37.984375 L 52.390625 -37.984375 L 52.390625 -25.5 Z M 8.46875 -25.5 "/></g></g></g><g fill="#000000" fill-opacity="1"><g transform="translate(657.252327, 166.295322)"><g><path d="M 19.125 -9.578125 C 19.125 -11.640625 19.628906 -13.523438 20.640625 -15.234375 C 21.648438 -16.941406 23.015625 -18.3125 24.734375 -19.34375 C 26.460938 -20.375 28.359375 -20.890625 30.421875 -20.890625 C 32.523438 -20.890625 34.425781 -20.375 36.125 -19.34375 C 37.832031 -18.3125 39.191406 -16.941406 40.203125 -15.234375 C 41.222656 -13.523438 41.734375 -11.640625 41.734375 -9.578125 C 41.734375 -7.554688 41.222656 -5.679688 40.203125 -3.953125 C 39.191406 -2.234375 37.832031 -0.859375 36.125 0.171875 C 34.425781 1.203125 32.523438 1.71875 30.421875 1.71875 C 28.359375 1.71875 26.460938 1.203125 24.734375 0.171875 C 23.015625 -0.859375 21.648438 -2.234375 20.640625 -3.953125 C 19.628906 -5.679688 19.125 -7.554688 19.125 -9.578125 Z M 19.125 -9.578125 "/></g></g></g><g fill="#000000" fill-opacity="1"><g transform="translate(80.475978, 273.377655)"><g/></g></g><g fill="#000000" fill-opacity="1"><g transform="translate(144.559095, 273.377655)"><g/></g></g><g fill="#000000" fill-opacity="1"><g transform="translate(208.642212, 273.377655)"><g/></g></g><g fill="#000000" fill-opacity="1"><g transform="translate(272.725333, 273.377655)"><g/></g></g><g fill="#000000" fill-opacity="1"><g transform="translate(336.871239, 273.377655)"><g><path d="M 15.421875 11.359375 L 2.890625 5.625 L 45.53125 -82.859375 L 57.96875 -77.125 Z M 15.421875 11.359375 "/></g></g></g><g fill="#000000" fill-opacity="1"><g transform="translate(400.986785, 273.377655)"><g/></g></g><g fill="#000000" fill-opacity="1"><g transform="translate(465.069902, 273.377655)"><g/></g></g><g fill="#000000" fill-opacity="1"><g transform="translate(529.15302, 273.377655)"><g/></g></g><g fill="#000000" fill-opacity="1"><g transform="translate(593.23614, 273.377655)"><g/></g></g><g fill="#000000" fill-opacity="1"><g transform="translate(657.319253, 273.377655)"><g/></g></g><g fill="#000000" fill-opacity="1"><g transform="translate(721.430666, 273.377655)"><g><path d="M 2.890625 -77.125 L 15.421875 -82.859375 L 57.96875 5.625 L 45.4375 11.359375 Z M 2.890625 -77.125 "/></g></g></g><g fill="#000000" fill-opacity="1"><g transform="translate(80.475978, 380.459988)"><g/></g></g><g fill="#000000" fill-opacity="1"><g transform="translate(144.559095, 380.459988)"><g/></g></g><g fill="#000000" fill-opacity="1"><g transform="translate(208.642212, 380.459988)"><g/></g></g><g fill="#000000" fill-opacity="1"><g transform="translate(272.725333, 380.459988)"><g/></g></g><g fill="#000000" fill-opacity="1"><g transform="translate(336.871239, 380.459988)"><g><path d="M 2.890625 -77.125 L 15.421875 -82.859375 L 57.96875 5.625 L 45.4375 11.359375 Z M 2.890625 -77.125 "/></g></g></g><g fill="#000000" fill-opacity="1"><g transform="translate(400.954356, 380.459988)"><g><path d="M 19.125 -9.578125 C 19.125 -11.640625 19.628906 -13.523438 20.640625 -15.234375 C 21.648438 -16.941406 23.015625 -18.3125 24.734375 -19.34375 C 26.460938 -20.375 28.359375 -20.890625 30.421875 -20.890625 C 32.523438 -20.890625 34.425781 -20.375 36.125 -19.34375 C 37.832031 -18.3125 39.191406 -16.941406 40.203125 -15.234375 C 41.222656 -13.523438 41.734375 -11.640625 41.734375 -9.578125 C 41.734375 -7.554688 41.222656 -5.679688 40.203125 -3.953125 C 39.191406 -2.234375 37.832031 -0.859375 36.125 0.171875 C 34.425781 1.203125 32.523438 1.71875 30.421875 1.71875 C 28.359375 1.71875 26.460938 1.203125 24.734375 0.171875 C 23.015625 -0.859375 21.648438 -2.234375 20.640625 -3.953125 C 19.628906 -5.679688 19.125 -7.554688 19.125 -9.578125 Z M 19.125 -9.578125 "/></g></g></g><g fill="#000000" fill-opacity="1"><g transform="translate(465.037473, 380.459988)"><g><path d="M 29.109375 -72.0625 C 33.910156 -72.0625 38.082031 -71.414062 41.625 -70.125 C 45.175781 -68.84375 48.175781 -66.984375 50.625 -64.546875 C 53.082031 -62.117188 55.046875 -59.179688 56.515625 -55.734375 C 57.984375 -52.285156 59.046875 -48.394531 59.703125 -44.0625 C 60.367188 -39.738281 60.703125 -35.039062 60.703125 -29.96875 C 60.703125 -21.445312 60.269531 -14.253906 59.40625 -8.390625 C 58.539062 -2.523438 56.957031 1.925781 54.65625 4.96875 C 52.363281 8.007812 49.054688 9.53125 44.734375 9.53125 C 42.804688 9.53125 41.125 9.15625 39.6875 8.40625 C 38.25 7.664062 37.035156 6.65625 36.046875 5.375 C 35.066406 4.09375 34.289062 2.601562 33.71875 0.90625 C 33.144531 -0.78125 32.757812 -2.570312 32.5625 -4.46875 L 32.15625 -4.46875 C 31.40625 -2.769531 30.378906 -1.203125 29.078125 0.234375 C 27.773438 1.671875 26.203125 2.816406 24.359375 3.671875 C 22.523438 4.535156 20.390625 4.96875 17.953125 4.96875 C 13.960938 4.96875 10.765625 3.953125 8.359375 1.921875 C 5.960938 -0.0976562 4.234375 -2.859375 3.171875 -6.359375 C 2.109375 -9.859375 1.578125 -13.789062 1.578125 -18.15625 C 1.578125 -26.507812 3.320312 -33.144531 6.8125 -38.0625 C 10.3125 -42.976562 15.75 -45.4375 23.125 -45.4375 C 25.832031 -45.4375 28.65625 -45.070312 31.59375 -44.34375 C 34.53125 -43.613281 37.382812 -42.488281 40.15625 -40.96875 L 40.15625 -10.546875 C 40.15625 -8.046875 40.300781 -6.0625 40.59375 -4.59375 C 40.882812 -3.125 41.332031 -2.066406 41.9375 -1.421875 C 42.539062 -0.773438 43.300781 -0.453125 44.21875 -0.453125 C 45.195312 -0.453125 45.960938 -0.96875 46.515625 -2 C 47.078125 -3.03125 47.492188 -4.675781 47.765625 -6.9375 C 48.035156 -9.207031 48.210938 -12.164062 48.296875 -15.8125 C 48.378906 -19.46875 48.421875 -23.898438 48.421875 -29.109375 C 48.421875 -34.410156 48.125 -39.113281 47.53125 -43.21875 C 46.945312 -47.332031 45.921875 -50.800781 44.453125 -53.625 C 42.984375 -56.445312 40.9375 -58.582031 38.3125 -60.03125 C 35.6875 -61.488281 32.347656 -62.21875 28.296875 -62.21875 C 24.679688 -62.21875 21.070312 -61.515625 17.46875 -60.109375 C 13.863281 -58.710938 10.101562 -56.304688 6.1875 -52.890625 L -0.15625 -60.34375 C 4.476562 -64.40625 9.132812 -67.375 13.8125 -69.25 C 18.5 -71.125 23.597656 -72.0625 29.109375 -72.0625 Z M 22.8125 -35.390625 C 20.144531 -35.390625 18.328125 -34.140625 17.359375 -31.640625 C 16.398438 -29.140625 15.921875 -24.644531 15.921875 -18.15625 C 15.921875 -15.082031 16.0625 -12.582031 16.34375 -10.65625 C 16.632812 -8.726562 17.144531 -7.316406 17.875 -6.421875 C 18.601562 -5.523438 19.59375 -5.078125 20.84375 -5.078125 C 22.363281 -5.078125 23.507812 -5.457031 24.28125 -6.21875 C 25.0625 -6.976562 25.617188 -7.90625 25.953125 -9 C 26.296875 -10.101562 26.535156 -11.175781 26.671875 -12.21875 L 26.671875 -34.4375 C 25.421875 -35.070312 24.132812 -35.390625 22.8125 -35.390625 Z M 22.8125 -35.390625 "/></g></g></g><g fill="#000000" fill-opacity="1"><g transform="translate(529.120594, 380.459988)"><g><path d="M 8.46875 -25.5 L 8.46875 -37.984375 L 52.390625 -37.984375 L 52.390625 -25.5 Z M 8.46875 -25.5 "/></g></g></g><g fill="#000000" fill-opacity="1"><g transform="translate(593.203707, 380.459988)"><g><path d="M 29.109375 -72.0625 C 33.910156 -72.0625 38.082031 -71.414062 41.625 -70.125 C 45.175781 -68.84375 48.175781 -66.984375 50.625 -64.546875 C 53.082031 -62.117188 55.046875 -59.179688 56.515625 -55.734375 C 57.984375 -52.285156 59.046875 -48.394531 59.703125 -44.0625 C 60.367188 -39.738281 60.703125 -35.039062 60.703125 -29.96875 C 60.703125 -21.445312 60.269531 -14.253906 59.40625 -8.390625 C 58.539062 -2.523438 56.957031 1.925781 54.65625 4.96875 C 52.363281 8.007812 49.054688 9.53125 44.734375 9.53125 C 42.804688 9.53125 41.125 9.15625 39.6875 8.40625 C 38.25 7.664062 37.035156 6.65625 36.046875 5.375 C 35.066406 4.09375 34.289062 2.601562 33.71875 0.90625 C 33.144531 -0.78125 32.757812 -2.570312 32.5625 -4.46875 L 32.15625 -4.46875 C 31.40625 -2.769531 30.378906 -1.203125 29.078125 0.234375 C 27.773438 1.671875 26.203125 2.816406 24.359375 3.671875 C 22.523438 4.535156 20.390625 4.96875 17.953125 4.96875 C 13.960938 4.96875 10.765625 3.953125 8.359375 1.921875 C 5.960938 -0.0976562 4.234375 -2.859375 3.171875 -6.359375 C 2.109375 -9.859375 1.578125 -13.789062 1.578125 -18.15625 C 1.578125 -26.507812 3.320312 -33.144531 6.8125 -38.0625 C 10.3125 -42.976562 15.75 -45.4375 23.125 -45.4375 C 25.832031 -45.4375 28.65625 -45.070312 31.59375 -44.34375 C 34.53125 -43.613281 37.382812 -42.488281 40.15625 -40.96875 L 40.15625 -10.546875 C 40.15625 -8.046875 40.300781 -6.0625 40.59375 -4.59375 C 40.882812 -3.125 41.332031 -2.066406 41.9375 -1.421875 C 42.539062 -0.773438 43.300781 -0.453125 44.21875 -0.453125 C 45.195312 -0.453125 45.960938 -0.96875 46.515625 -2 C 47.078125 -3.03125 47.492188 -4.675781 47.765625 -6.9375 C 48.035156 -9.207031 48.210938 -12.164062 48.296875 -15.8125 C 48.378906 -19.46875 48.421875 -23.898438 48.421875 -29.109375 C 48.421875 -34.410156 48.125 -39.113281 47.53125 -43.21875 C 46.945312 -47.332031 45.921875 -50.800781 44.453125 -53.625 C 42.984375 -56.445312 40.9375 -58.582031 38.3125 -60.03125 C 35.6875 -61.488281 32.347656 -62.21875 28.296875 -62.21875 C 24.679688 -62.21875 21.070312 -61.515625 17.46875 -60.109375 C 13.863281 -58.710938 10.101562 -56.304688 6.1875 -52.890625 L -0.15625 -60.34375 C 4.476562 -64.40625 9.132812 -67.375 13.8125 -69.25 C 18.5 -71.125 23.597656 -72.0625 29.109375 -72.0625 Z M 22.8125 -35.390625 C 20.144531 -35.390625 18.328125 -34.140625 17.359375 -31.640625 C 16.398438 -29.140625 15.921875 -24.644531 15.921875 -18.15625 C 15.921875 -15.082031 16.0625 -12.582031 16.34375 -10.65625 C 16.632812 -8.726562 17.144531 -7.316406 17.875 -6.421875 C 18.601562 -5.523438 19.59375 -5.078125 20.84375 -5.078125 C 22.363281 -5.078125 23.507812 -5.457031 24.28125 -6.21875 C 25.0625 -6.976562 25.617188 -7.90625 25.953125 -9 C 26.296875 -10.101562 26.535156 -11.175781 26.671875 -12.21875 L 26.671875 -34.4375 C 25.421875 -35.070312 24.132812 -35.390625 22.8125 -35.390625 Z M 22.8125 -35.390625 "/></g></g></g><g fill="#000000" fill-opacity="1"><g transform="translate(657.286819, 380.459988)"><g><path d="M 19.125 -9.578125 C 19.125 -11.640625 19.628906 -13.523438 20.640625 -15.234375 C 21.648438 -16.941406 23.015625 -18.3125 24.734375 -19.34375 C 26.460938 -20.375 28.359375 -20.890625 30.421875 -20.890625 C 32.523438 -20.890625 34.425781 -20.375 36.125 -19.34375 C 37.832031 -18.3125 39.191406 -16.941406 40.203125 -15.234375 C 41.222656 -13.523438 41.734375 -11.640625 41.734375 -9.578125 C 41.734375 -7.554688 41.222656 -5.679688 40.203125 -3.953125 C 39.191406 -2.234375 37.832031 -0.859375 36.125 0.171875 C 34.425781 1.203125 32.523438 1.71875 30.421875 1.71875 C 28.359375 1.71875 26.460938 1.203125 24.734375 0.171875 C 23.015625 -0.859375 21.648438 -2.234375 20.640625 -3.953125 C 19.628906 -5.679688 19.125 -7.554688 19.125 -9.578125 Z M 19.125 -9.578125 "/></g></g></g><g fill="#000000" fill-opacity="1"><g transform="translate(721.369948, 380.459988)"><g><path d="M 15.421875 11.359375 L 2.890625 5.625 L 45.53125 -82.859375 L 57.96875 -77.125 Z M 15.421875 11.359375 "/></g></g></g><g fill="#000000" fill-opacity="1"><g transform="translate(80.475978, 487.542321)"><g/></g></g><g fill="#000000" fill-opacity="1"><g transform="translate(144.559095, 487.542321)"><g/></g></g><g fill="#000000" fill-opacity="1"><g transform="translate(208.642212, 487.542321)"><g/></g></g><g fill="#000000" fill-opacity="1"><g transform="translate(272.725333, 487.542321)"><g/></g></g><g fill="#000000" fill-opacity="1"><g transform="translate(336.871239, 487.542321)"><g><path d="M 15.421875 11.359375 L 2.890625 5.625 L 45.53125 -82.859375 L 57.96875 -77.125 Z M 15.421875 11.359375 "/></g></g></g><g fill="#000000" fill-opacity="1"><g transform="translate(400.954356, 487.542321)"><g><path d="M 40.421875 -63.078125 L 16.484375 -72.625 L 22.71875 -84.640625 L 44.828125 -71.203125 Z M 40.421875 -63.078125 "/></g></g></g><g fill="#000000" fill-opacity="1"><g transform="translate(465.037473, 487.542321)"><g><path d="M 2.890625 -77.125 L 15.421875 -82.859375 L 57.96875 5.625 L 45.4375 11.359375 Z M 2.890625 -77.125 "/></g></g></g><g fill="#000000" fill-opacity="1"><g transform="translate(529.120594, 487.542321)"><g><path d="M 5.078125 18.859375 L 5.078125 6.28125 L 55.78125 6.28125 L 55.78125 18.859375 Z M 5.078125 18.859375 "/></g></g></g><g fill="#000000" fill-opacity="1"><g transform="translate(593.203707, 487.542321)"><g><path d="M 15.421875 11.359375 L 2.890625 5.625 L 45.53125 -82.859375 L 57.96875 -77.125 Z M 15.421875 11.359375 "/></g></g></g><g fill="#000000" fill-opacity="1"><g transform="translate(657.286819, 487.542321)"><g><path d="M 40.421875 -63.078125 L 16.484375 -72.625 L 22.71875 -84.640625 L 44.828125 -71.203125 Z M 40.421875 -63.078125 "/></g></g></g><g fill="#000000" fill-opacity="1"><g transform="translate(721.369948, 487.542321)"><g><path d="M 2.890625 -77.125 L 15.421875 -82.859375 L 57.96875 5.625 L 45.4375 11.359375 Z M 2.890625 -77.125 "/></g></g></g><g fill="#000000" fill-opacity="1"><g transform="translate(80.475978, 594.624654)"><g/></g></g><g fill="#000000" fill-opacity="1"><g transform="translate(144.559095, 594.624654)"><g/></g></g><g fill="#000000" fill-opacity="1"><g transform="translate(208.642212, 594.624654)"><g/></g></g><g fill="#000000" fill-opacity="1"><g transform="translate(272.755692, 594.624654)"><g><path d="M 15.421875 11.359375 L 2.890625 5.625 L 45.53125 -82.859375 L 57.96875 -77.125 Z M 15.421875 11.359375 "/></g></g></g><g fill="#000000" fill-opacity="1"><g transform="translate(336.838809, 594.624654)"><g><path d="M 15.421875 11.359375 L 2.890625 5.625 L 45.53125 -82.859375 L 57.96875 -77.125 Z M 15.421875 11.359375 "/></g></g></g><g fill="#000000" fill-opacity="1"><g transform="translate(400.986785, 594.624654)"><g/></g></g><g fill="#000000" fill-opacity="1"><g transform="translate(465.069902, 594.624654)"><g/></g></g><g fill="#000000" fill-opacity="1"><g transform="translate(529.217879, 594.624654)"><g><path d="M 5.078125 18.859375 L 5.078125 6.28125 L 55.78125 6.28125 L 55.78125 18.859375 Z M 5.078125 18.859375 "/></g></g></g><g fill="#000000" fill-opacity="1"><g transform="translate(593.333426, 594.624654)"><g/></g></g><g fill="#000000" fill-opacity="1"><g transform="translate(657.416543, 594.624654)"><g/></g></g><g fill="#000000" fill-opacity="1"><g transform="translate(721.564519, 594.624654)"><g><path d="M 2.890625 -77.125 L 15.421875 -82.859375 L 57.96875 5.625 L 45.4375 11.359375 Z M 2.890625 -77.125 "/></g></g></g><g fill="#000000" fill-opacity="1"><g transform="translate(785.647636, 594.624654)"><g><path d="M 2.890625 -77.125 L 15.421875 -82.859375 L 57.96875 5.625 L 45.4375 11.359375 Z M 2.890625 -77.125 "/></g></g></g><g fill="#000000" fill-opacity="1"><g transform="translate(80.475978, 701.706986)"><g/></g></g><g fill="#000000" fill-opacity="1"><g transform="translate(144.559095, 701.706986)"><g/></g></g><g fill="#000000" fill-opacity="1"><g transform="translate(208.707072, 701.706986)"><g><path d="M 37.828125 -82.15625 L 37.828125 10.65625 L 22.921875 10.65625 L 22.921875 -82.15625 Z M 37.828125 -82.15625 "/></g></g></g><g fill="#000000" fill-opacity="1"><g transform="translate(272.790189, 701.706986)"><g/></g></g><g fill="#000000" fill-opacity="1"><g transform="translate(336.873306, 701.706986)"><g><path d="M 2.890625 -77.125 L 15.421875 -82.859375 L 57.96875 5.625 L 45.4375 11.359375 Z M 2.890625 -77.125 "/></g></g></g><g fill="#000000" fill-opacity="1"><g transform="translate(400.986785, 701.706986)"><g/></g></g><g fill="#000000" fill-opacity="1"><g transform="translate(465.069902, 701.706986)"><g/></g></g><g fill="#000000" fill-opacity="1"><g transform="translate(529.15302, 701.706986)"><g/></g></g><g fill="#000000" fill-opacity="1"><g transform="translate(593.23614, 701.706986)"><g/></g></g><g fill="#000000" fill-opacity="1"><g transform="translate(657.319253, 701.706986)"><g/></g></g><g fill="#000000" fill-opacity="1"><g transform="translate(721.430666, 701.706986)"><g><path d="M 34.4375 -35.5 C 34.4375 -39.6875 34.070312 -43.585938 33.34375 -47.203125 C 32.613281 -50.828125 31.472656 -54.328125 29.921875 -57.703125 C 28.367188 -61.085938 26.375 -64.476562 23.9375 -67.875 C 21.5 -71.269531 18.570312 -74.828125 15.15625 -78.546875 L 24.5 -86.96875 C 29.832031 -82.375 34.457031 -77.523438 38.375 -72.421875 C 42.300781 -67.316406 45.328125 -61.738281 47.453125 -55.6875 C 49.585938 -49.632812 50.65625 -42.90625 50.65625 -35.5 C 50.65625 -28.09375 49.585938 -21.363281 47.453125 -15.3125 C 45.328125 -9.257812 42.300781 -3.679688 38.375 1.421875 C 34.457031 6.523438 29.832031 11.375 24.5 15.96875 L 15.15625 7.5625 C 20.03125 2.28125 23.867188 -2.5625 26.671875 -6.96875 C 29.484375 -11.382812 31.476562 -15.847656 32.65625 -20.359375 C 33.84375 -24.867188 34.4375 -29.914062 34.4375 -35.5 Z M 34.4375 -35.5 "/></g></g></g><g fill="#000000" fill-opacity="1"><g transform="translate(785.513783, 701.706986)"><g><path d="M 37.828125 -82.15625 L 37.828125 10.65625 L 22.921875 10.65625 L 22.921875 -82.15625 Z M 37.828125 -82.15625 "/></g></g></g><g fill="#000000" fill-opacity="1"><g transform="translate(849.5969, 701.706986)"><g><path d="M 5.078125 18.859375 L 5.078125 6.28125 L 55.78125 6.28125 L 55.78125 18.859375 Z M 5.078125 18.859375 "/></g></g></g><g fill="#000000" fill-opacity="1"><g transform="translate(80.475978, 808.789319)"><g/></g></g><g fill="#000000" fill-opacity="1"><g transform="translate(144.591525, 808.789319)"><g><path d="M 15.421875 11.359375 L 2.890625 5.625 L 45.53125 -82.859375 L 57.96875 -77.125 Z M 15.421875 11.359375 "/></g></g></g><g fill="#000000" fill-opacity="1"><g transform="translate(208.674642, 808.789319)"><g><path d="M 40.421875 -63.078125 L 16.484375 -72.625 L 22.71875 -84.640625 L 44.828125 -71.203125 Z M 40.421875 -63.078125 "/></g></g></g><g fill="#000000" fill-opacity="1"><g transform="translate(272.757759, 808.789319)"><g><path d="M 2.890625 -77.125 L 15.421875 -82.859375 L 57.96875 5.625 L 45.4375 11.359375 Z M 2.890625 -77.125 "/></g></g></g><g fill="#000000" fill-opacity="1"><g transform="translate(336.84088, 808.789319)"><g><path d="M 5.078125 18.859375 L 5.078125 6.28125 L 55.78125 6.28125 L 55.78125 18.859375 Z M 5.078125 18.859375 "/></g></g></g><g fill="#000000" fill-opacity="1"><g transform="translate(400.923993, 808.789319)"><g><path d="M 40.421875 -63.078125 L 16.484375 -72.625 L 22.71875 -84.640625 L 44.828125 -71.203125 Z M 40.421875 -63.078125 "/></g></g></g><g fill="#000000" fill-opacity="1"><g transform="translate(465.007106, 808.789319)"><g><path d="M 14.140625 -62.125 L 53.796875 -37.578125 L 53.796875 -26.109375 L 14.296875 -1.578125 L 7.046875 -12.46875 L 40.015625 -31.84375 L 7.046875 -50.609375 Z M 14.140625 -62.125 "/></g></g></g><g fill="#000000" fill-opacity="1"><g transform="translate(529.150952, 808.789319)"><g/></g></g><g fill="#000000" fill-opacity="1"><g transform="translate(593.234069, 808.789319)"><g/></g></g><g fill="#000000" fill-opacity="1"><g transform="translate(657.382046, 808.789319)"><g><path d="M 46.8125 -62.125 L 53.796875 -51.0625 L 20.890625 -31.84375 L 53.796875 -12.984375 L 46.546875 -1.578125 L 7.046875 -26.109375 L 7.046875 -37.46875 Z M 46.8125 -62.125 "/></g></g></g><g fill="#000000" fill-opacity="1"><g transform="translate(721.465163, 808.789319)"><g><path d="M 5.078125 18.859375 L 5.078125 6.28125 L 55.78125 6.28125 L 55.78125 18.859375 Z M 5.078125 18.859375 "/></g></g></g><g fill="#000000" fill-opacity="1"><g transform="translate(785.54828, 808.789319)"><g><path d="M 15.421875 11.359375 L 2.890625 5.625 L 45.53125 -82.859375 L 57.96875 -77.125 Z M 15.421875 11.359375 "/></g></g></g><g fill="#000000" fill-opacity="1"><g transform="translate(849.631401, 808.789319)"><g/></g></g><g fill="#000000" fill-opacity="1"><g transform="translate(913.714514, 808.789319)"><g><path d="M 2.890625 -77.125 L 15.421875 -82.859375 L 57.96875 5.625 L 45.4375 11.359375 Z M 2.890625 -77.125 "/></g></g></g><g fill="#000000" fill-opacity="1"><g transform="translate(80.475978, 915.871652)"><g/></g></g><g fill="#000000" fill-opacity="1"><g transform="translate(144.591525, 915.871652)"><g><path d="M 2.890625 -77.125 L 15.421875 -82.859375 L 57.96875 5.625 L 45.4375 11.359375 Z M 2.890625 -77.125 "/></g></g></g><g fill="#000000" fill-opacity="1"><g transform="translate(208.674642, 915.871652)"><g><path d="M 5.078125 18.859375 L 5.078125 6.28125 L 55.78125 6.28125 L 55.78125 18.859375 Z M 5.078125 18.859375 "/></g></g></g><g fill="#000000" fill-opacity="1"><g transform="translate(272.757759, 915.871652)"><g><path d="M 5.078125 18.859375 L 5.078125 6.28125 L 55.78125 6.28125 L 55.78125 18.859375 Z M 5.078125 18.859375 "/></g></g></g><g fill="#000000" fill-opacity="1"><g transform="translate(336.84088, 915.871652)"><g><path d="M 15.421875 11.359375 L 2.890625 5.625 L 45.53125 -82.859375 L 57.96875 -77.125 Z M 15.421875 11.359375 "/></g></g></g><g fill="#000000" fill-opacity="1"><g transform="translate(400.923993, 915.871652)"><g><path d="M 24.703125 -46.90625 L 22.765625 -75.25 L 37.984375 -75.25 L 36.0625 -46.90625 Z M 24.703125 -46.90625 "/></g></g></g><g fill="#000000" fill-opacity="1"><g transform="translate(465.007106, 915.871652)"><g><path d="M 8.46875 -25.5 L 8.46875 -37.984375 L 52.390625 -37.984375 L 52.390625 -25.5 Z M 8.46875 -25.5 "/></g></g></g><g fill="#000000" fill-opacity="1"><g transform="translate(529.090235, 915.871652)"><g><path d="M 8.46875 -25.5 L 8.46875 -37.984375 L 52.390625 -37.984375 L 52.390625 -25.5 Z M 8.46875 -25.5 "/></g></g></g><g fill="#000000" fill-opacity="1"><g transform="translate(593.173364, 915.871652)"><g><path d="M 8.46875 -25.5 L 8.46875 -37.984375 L 52.390625 -37.984375 L 52.390625 -25.5 Z M 8.46875 -25.5 "/></g></g></g><g fill="#000000" fill-opacity="1"><g transform="translate(657.256493, 915.871652)"><g><path d="M 24.703125 -46.90625 L 22.765625 -75.25 L 37.984375 -75.25 L 36.0625 -46.90625 Z M 24.703125 -46.90625 "/></g></g></g><g fill="#000000" fill-opacity="1"><g transform="translate(721.339622, 915.871652)"><g><path d="M 2.890625 -77.125 L 15.421875 -82.859375 L 57.96875 5.625 L 45.4375 11.359375 Z M 2.890625 -77.125 "/></g></g></g><g fill="#000000" fill-opacity="1"><g transform="translate(785.422751, 915.871652)"><g><path d="M 5.078125 18.859375 L 5.078125 6.28125 L 55.78125 6.28125 L 55.78125 18.859375 Z M 5.078125 18.859375 "/></g></g></g><g fill="#000000" fill-opacity="1"><g transform="translate(849.50588, 915.871652)"><g><path d="M 5.078125 18.859375 L 5.078125 6.28125 L 55.78125 6.28125 L 55.78125 18.859375 Z M 5.078125 18.859375 "/></g></g></g><g fill="#000000" fill-opacity="1"><g transform="translate(913.589009, 915.871652)"><g><path d="M 15.421875 11.359375 L 2.890625 5.625 L 45.53125 -82.859375 L 57.96875 -77.125 Z M 15.421875 11.359375 "/></g></g></g><g fill="#000000" fill-opacity="1"><g transform="translate(80.475978, 1022.953985)"><g><path d="M 36.3125 -72.0625 C 41.34375 -72.0625 45.625 -71.390625 49.15625 -70.046875 C 52.695312 -68.710938 55.9375 -66.832031 58.875 -64.40625 L 50.703125 -54.5625 C 48.785156 -56.15625 46.660156 -57.414062 44.328125 -58.34375 C 41.992188 -59.269531 39.457031 -59.734375 36.71875 -59.734375 C 33.769531 -59.734375 31.078125 -58.894531 28.640625 -57.21875 C 26.210938 -55.550781 24.269531 -52.914062 22.8125 -49.3125 C 21.363281 -45.71875 20.640625 -41.046875 20.640625 -35.296875 C 20.640625 -29.648438 21.335938 -25.039062 22.734375 -21.46875 C 24.140625 -17.90625 26.078125 -15.285156 28.546875 -13.609375 C 31.015625 -11.941406 33.835938 -11.109375 37.015625 -11.109375 C 40.535156 -11.109375 43.460938 -11.765625 45.796875 -13.078125 C 48.128906 -14.398438 50.273438 -15.835938 52.234375 -17.390625 L 59.78125 -7.765625 C 57.144531 -5.160156 53.898438 -2.925781 50.046875 -1.0625 C 46.191406 0.789062 41.546875 1.71875 36.109375 1.71875 C 29.753906 1.71875 24.113281 0.304688 19.1875 -2.515625 C 14.269531 -5.335938 10.414062 -9.492188 7.625 -14.984375 C 4.84375 -20.472656 3.453125 -27.242188 3.453125 -35.296875 C 3.453125 -43.140625 4.894531 -49.796875 7.78125 -55.265625 C 10.675781 -60.742188 14.609375 -64.910156 19.578125 -67.765625 C 24.546875 -70.628906 30.125 -72.0625 36.3125 -72.0625 Z M 36.3125 -72.0625 "/></g></g></g><g fill="#000000" fill-opacity="1"><g transform="translate(144.559095, 1022.953985)"><g><path d="M 61.15625 -70.28125 L 52.9375 0 L 35.65625 0 L 30.53125 -50.25 L 24.90625 0 L 7.296875 0 L -0.296875 -70.28125 L 15.265625 -70.28125 L 17.640625 -14.203125 L 23.484375 -62.171875 L 37.78125 -62.171875 L 43.203125 -14.203125 L 46.703125 -70.28125 Z M 61.15625 -70.28125 "/></g></g></g><g fill="#000000" fill-opacity="1"><g transform="translate(208.642212, 1022.953985)"><g><path d="M 56.953125 -48.9375 C 56.953125 -45.59375 56.328125 -42.664062 55.078125 -40.15625 C 53.828125 -37.65625 52.132812 -35.539062 50 -33.8125 C 47.875 -32.09375 45.488281 -30.710938 42.84375 -29.671875 L 61.265625 0 L 42.4375 0 L 27.234375 -26.875 L 22.515625 -26.875 L 22.515625 0 L 5.875 0 L 5.875 -70.28125 L 28 -70.28125 C 37.5625 -70.28125 44.773438 -68.539062 49.640625 -65.0625 C 54.515625 -61.582031 56.953125 -56.207031 56.953125 -48.9375 Z M 39.8125 -48.9375 C 39.8125 -52.3125 38.820312 -54.769531 36.84375 -56.3125 C 34.863281 -57.851562 31.929688 -58.625 28.046875 -58.625 L 22.515625 -58.625 L 22.515625 -38.28125 L 28.703125 -38.28125 C 32.316406 -38.28125 35.070312 -39.125 36.96875 -40.8125 C 38.863281 -42.507812 39.8125 -45.21875 39.8125 -48.9375 Z M 39.8125 -48.9375 "/></g></g></g><g fill="#000000" fill-opacity="1"><g transform="translate(272.725333, 1022.953985)"><g><path d="M 56.59375 -70.28125 L 56.59375 -23.53125 C 56.59375 -18.726562 55.617188 -14.425781 53.671875 -10.625 C 51.734375 -6.820312 48.828125 -3.8125 44.953125 -1.59375 C 41.085938 0.613281 36.242188 1.71875 30.421875 1.71875 C 24.578125 1.71875 19.71875 0.65625 15.84375 -1.46875 C 11.976562 -3.601562 9.082031 -6.5625 7.15625 -10.34375 C 5.226562 -14.132812 4.265625 -18.53125 4.265625 -23.53125 L 4.265625 -70.28125 L 20.9375 -70.28125 L 20.9375 -29.71875 C 20.9375 -23.394531 21.507812 -18.632812 22.65625 -15.4375 C 23.8125 -12.25 26.398438 -10.65625 30.421875 -10.65625 C 34.453125 -10.65625 37.039062 -12.25 38.1875 -15.4375 C 39.332031 -18.632812 39.90625 -23.394531 39.90625 -29.71875 L 39.90625 -70.28125 Z M 56.59375 -70.28125 "/></g></g></g><g fill="#000000" fill-opacity="1"><g transform="translate(336.808446, 1022.953985)"><g/></g></g><g fill="#000000" fill-opacity="1"><g transform="translate(400.891559, 1022.953985)"><g><path d="M 9.4375 0 L 9.4375 -70.28125 L 26.0625 -70.28125 L 26.0625 -13.140625 L 56.546875 -13.140625 L 54.8125 0 Z M 9.4375 0 "/></g></g></g><g fill="#000000" fill-opacity="1"><g transform="translate(464.974688, 1022.953985)"><g><path d="M 40.015625 -53.859375 L 40.015625 -10.953125 L 53.703125 -10.953125 L 53.703125 0 L 8.71875 0 L 8.71875 -10.953125 L 23.984375 -10.953125 L 23.984375 -42.90625 L 9.234375 -42.90625 L 9.234375 -53.859375 Z M 30.328125 -82.046875 C 33.097656 -82.046875 35.359375 -81.179688 37.109375 -79.453125 C 38.867188 -77.734375 39.75 -75.59375 39.75 -73.03125 C 39.75 -70.457031 38.867188 -68.300781 37.109375 -66.5625 C 35.359375 -64.820312 33.097656 -63.953125 30.328125 -63.953125 C 27.515625 -63.953125 25.222656 -64.820312 23.453125 -66.5625 C 21.679688 -68.300781 20.796875 -70.457031 20.796875 -73.03125 C 20.796875 -75.59375 21.679688 -77.734375 23.453125 -79.453125 C 25.222656 -81.179688 27.515625 -82.046875 30.328125 -82.046875 Z M 30.328125 -82.046875 "/></g></g></g><g fill="#000000" fill-opacity="1"><g transform="translate(529.057817, 1022.953985)"><g><path d="M 7.09375 0 L 7.09375 -53.859375 L 21.09375 -53.859375 L 22.21875 -47.625 C 24.613281 -50.320312 27.144531 -52.328125 29.8125 -53.640625 C 32.488281 -54.960938 35.535156 -55.625 38.953125 -55.625 C 43.546875 -55.625 47.160156 -54.222656 49.796875 -51.421875 C 52.429688 -48.617188 53.75 -44.660156 53.75 -39.546875 L 53.75 0 L 37.734375 0 L 37.734375 -34.9375 C 37.734375 -37.132812 37.578125 -38.882812 37.265625 -40.1875 C 36.960938 -41.488281 36.429688 -42.414062 35.671875 -42.96875 C 34.910156 -43.53125 33.875 -43.8125 32.5625 -43.8125 C 31.445312 -43.8125 30.351562 -43.566406 29.28125 -43.078125 C 28.21875 -42.585938 27.175781 -41.882812 26.15625 -40.96875 C 25.144531 -40.0625 24.132812 -38.960938 23.125 -37.671875 L 23.125 0 Z M 7.09375 0 "/></g></g></g><g fill="#000000" fill-opacity="1"><g transform="translate(593.140946, 1022.953985)"><g><path d="M 23.125 -53.859375 L 23.125 -16.984375 C 23.125 -14.378906 23.601562 -12.585938 24.5625 -11.609375 C 25.53125 -10.628906 26.875 -10.140625 28.59375 -10.140625 C 30.25 -10.140625 31.90625 -10.660156 33.5625 -11.703125 C 35.226562 -12.753906 36.617188 -14.175781 37.734375 -15.96875 L 37.734375 -53.859375 L 53.75 -53.859375 L 53.75 0 L 39.75 0 L 39.046875 -6.28125 C 37.222656 -3.644531 34.820312 -1.648438 31.84375 -0.296875 C 28.875 1.046875 25.765625 1.71875 22.515625 1.71875 C 17.304688 1.71875 13.429688 0.207031 10.890625 -2.8125 C 8.359375 -5.84375 7.09375 -9.910156 7.09375 -15.015625 L 7.09375 -53.859375 Z M 23.125 -53.859375 "/></g></g></g><g fill="#000000" fill-opacity="1"><g transform="translate(657.224075, 1022.953985)"><g><path d="M 19.578125 0 L 2.234375 0 L 20.6875 -28.296875 L 3.953125 -53.859375 L 21.90625 -53.859375 L 30.53125 -36.609375 L 38.84375 -53.859375 L 55.890625 -53.859375 L 40.0625 -28.90625 L 58.625 0 L 40.46875 0 L 29.8125 -20.125 Z M 19.578125 0 "/></g></g></g><g fill="#000000" fill-opacity="1"><g transform="translate(721.307204, 1022.953985)"><g/></g></g><g fill="#000000" fill-opacity="1"><g transform="translate(785.390333, 1022.953985)"><g><path d="M 36.3125 -72.0625 C 41.34375 -72.0625 45.625 -71.390625 49.15625 -70.046875 C 52.695312 -68.710938 55.9375 -66.832031 58.875 -64.40625 L 50.703125 -54.5625 C 48.785156 -56.15625 46.660156 -57.414062 44.328125 -58.34375 C 41.992188 -59.269531 39.457031 -59.734375 36.71875 -59.734375 C 33.769531 -59.734375 31.078125 -58.894531 28.640625 -57.21875 C 26.210938 -55.550781 24.269531 -52.914062 22.8125 -49.3125 C 21.363281 -45.71875 20.640625 -41.046875 20.640625 -35.296875 C 20.640625 -29.648438 21.335938 -25.039062 22.734375 -21.46875 C 24.140625 -17.90625 26.078125 -15.285156 28.546875 -13.609375 C 31.015625 -11.941406 33.835938 -11.109375 37.015625 -11.109375 C 40.535156 -11.109375 43.460938 -11.765625 45.796875 -13.078125 C 48.128906 -14.398438 50.273438 -15.835938 52.234375 -17.390625 L 59.78125 -7.765625 C 57.144531 -5.160156 53.898438 -2.925781 50.046875 -1.0625 C 46.191406 0.789062 41.546875 1.71875 36.109375 1.71875 C 29.753906 1.71875 24.113281 0.304688 19.1875 -2.515625 C 14.269531 -5.335938 10.414062 -9.492188 7.625 -14.984375 C 4.84375 -20.472656 3.453125 -27.242188 3.453125 -35.296875 C 3.453125 -43.140625 4.894531 -49.796875 7.78125 -55.265625 C 10.675781 -60.742188 14.609375 -64.910156 19.578125 -67.765625 C 24.546875 -70.628906 30.125 -72.0625 36.3125 -72.0625 Z M 36.3125 -72.0625 "/></g></g></g><g fill="#000000" fill-opacity="1"><g transform="translate(849.473462, 1022.953985)"><g><path d="M 35.1875 -75.25 L 35.1875 -16.9375 C 35.1875 -14.769531 35.800781 -13.222656 37.03125 -12.296875 C 38.269531 -11.367188 39.972656 -10.90625 42.140625 -10.90625 C 43.523438 -10.90625 44.859375 -11.0625 46.140625 -11.375 C 47.429688 -11.695312 48.632812 -12.082031 49.75 -12.53125 L 53.59375 -1.828125 C 51.769531 -0.878906 49.570312 -0.0507812 47 0.65625 C 44.4375 1.363281 41.445312 1.71875 38.03125 1.71875 C 31.539062 1.71875 26.773438 -0.144531 23.734375 -3.875 C 20.691406 -7.613281 19.171875 -12.628906 19.171875 -18.921875 L 19.171875 -64.296875 L 3.296875 -64.296875 L 3.296875 -75.25 Z M 35.1875 -75.25 "/></g></g></g><g fill="#000000" fill-opacity="1"><g transform="translate(913.556591, 1022.953985)"><g><path d="M 23.125 -53.859375 L 23.125 -16.984375 C 23.125 -14.378906 23.601562 -12.585938 24.5625 -11.609375 C 25.53125 -10.628906 26.875 -10.140625 28.59375 -10.140625 C 30.25 -10.140625 31.90625 -10.660156 33.5625 -11.703125 C 35.226562 -12.753906 36.617188 -14.175781 37.734375 -15.96875 L 37.734375 -53.859375 L 53.75 -53.859375 L 53.75 0 L 39.75 0 L 39.046875 -6.28125 C 37.222656 -3.644531 34.820312 -1.648438 31.84375 -0.296875 C 28.875 1.046875 25.765625 1.71875 22.515625 1.71875 C 17.304688 1.71875 13.429688 0.207031 10.890625 -2.8125 C 8.359375 -5.84375 7.09375 -9.910156 7.09375 -15.015625 L 7.09375 -53.859375 Z M 23.125 -53.859375 "/></g></g></g><g fill="#000000" fill-opacity="1"><g transform="translate(977.63972, 1022.953985)"><g><path d="M 23.125 -48.328125 C 24.8125 -50.554688 26.847656 -52.328125 29.234375 -53.640625 C 31.617188 -54.960938 34.179688 -55.625 36.921875 -55.625 C 41.546875 -55.625 45.320312 -54.457031 48.25 -52.125 C 51.175781 -49.789062 53.332031 -46.492188 54.71875 -42.234375 C 56.101562 -37.984375 56.796875 -32.929688 56.796875 -27.078125 C 56.796875 -21.535156 55.972656 -16.59375 54.328125 -12.25 C 52.691406 -7.90625 50.269531 -4.488281 47.0625 -2 C 43.851562 0.476562 39.914062 1.71875 35.25 1.71875 C 29.601562 1.71875 25.15625 -0.476562 21.90625 -4.875 L 21.296875 0 L 7.09375 0 L 7.09375 -75.25 L 23.125 -76.921875 Z M 31.03125 -9.9375 C 33.875 -9.9375 36.125 -11.242188 37.78125 -13.859375 C 39.4375 -16.484375 40.265625 -20.820312 40.265625 -26.875 C 40.265625 -31.34375 39.914062 -34.800781 39.21875 -37.25 C 38.53125 -39.695312 37.550781 -41.398438 36.28125 -42.359375 C 35.007812 -43.328125 33.53125 -43.8125 31.84375 -43.8125 C 30.050781 -43.8125 28.445312 -43.253906 27.03125 -42.140625 C 25.613281 -41.023438 24.3125 -39.503906 23.125 -37.578125 L 23.125 -14.859375 C 24.132812 -13.265625 25.265625 -12.046875 26.515625 -11.203125 C 27.765625 -10.359375 29.269531 -9.9375 31.03125 -9.9375 Z M 31.03125 -9.9375 "/></g></g></g><g fill="#000000" fill-opacity="1"><g transform="translate(1041.740716, 1022.953985)"><g/></g></g></svg>