<svg xmlns="http://www.w3.org/2000/svg" xmlns:xlink="http://www.w3.org/1999/xlink" width="1500" zoomAndPan="magnify" viewBox="0 0 1125 1124.99995" height="1500" preserveAspectRatio="xMidYMid meet" version="1.0"><defs><g/></defs><rect x="-112.5" width="1350" fill="#ffffff" y="-112.499995" height="1349.99994" fill-opacity="1"/><rect x="-112.5" width="1350" fill="#ffffff" y="-112.499995" height="1349.99994" fill-opacity="1"/><g fill="#000000" fill-opacity="1"><g transform="translate(2.850311, 107.390488)"><g/></g></g><g fill="#000000" fill-opacity="1"><g transform="translate(77.442907, 107.390488)"><g/></g></g><g fill="#000000" fill-opacity="1"><g transform="translate(152.035503, 107.390488)"><g/></g></g><g fill="#000000" fill-opacity="1"><g transform="translate(226.628104, 107.390488)"><g/></g></g><g fill="#000000" fill-opacity="1"><g transform="translate(301.220695, 107.390488)"><g/></g></g><g fill="#000000" fill-opacity="1"><g transform="translate(375.846228, 107.390488)"><g><path d="M 22.25 -11.15625 C 22.25 -13.550781 22.835938 -15.742188 24.015625 -17.734375 C 25.203125 -19.722656 26.796875 -21.316406 28.796875 -22.515625 C 30.804688 -23.722656 33.015625 -24.328125 35.421875 -24.328125 C 37.859375 -24.328125 40.070312 -23.722656 42.0625 -22.515625 C 44.050781 -21.316406 45.632812 -19.722656 46.8125 -17.734375 C 47.988281 -15.742188 48.578125 -13.550781 48.578125 -11.15625 C 48.578125 -8.789062 47.988281 -6.601562 46.8125 -4.59375 C 45.632812 -2.59375 44.050781 -0.992188 42.0625 0.203125 C 40.070312 1.398438 37.859375 2 35.421875 2 C 33.015625 2 30.804688 1.398438 28.796875 0.203125 C 26.796875 -0.992188 25.203125 -2.59375 24.015625 -4.59375 C 22.835938 -6.601562 22.25 -8.789062 22.25 -11.15625 Z M 22.25 -11.15625 "/></g></g></g><g fill="#000000" fill-opacity="1"><g transform="translate(450.438824, 107.390488)"><g><path d="M 9.859375 -29.6875 L 9.859375 -44.21875 L 60.984375 -44.21875 L 60.984375 -29.6875 Z M 9.859375 -29.6875 "/></g></g></g><g fill="#000000" fill-opacity="1"><g transform="translate(525.03142, 107.390488)"><g><path d="M 9.859375 -29.6875 L 9.859375 -44.21875 L 60.984375 -44.21875 L 60.984375 -29.6875 Z M 9.859375 -29.6875 "/></g></g></g><g fill="#000000" fill-opacity="1"><g transform="translate(599.624021, 107.390488)"><g><path d="M 9.859375 -29.6875 L 9.859375 -44.21875 L 60.984375 -44.21875 L 60.984375 -29.6875 Z M 9.859375 -29.6875 "/></g></g></g><g fill="#000000" fill-opacity="1"><g transform="translate(674.216612, 107.390488)"><g><path d="M 22.25 -11.15625 C 22.25 -13.550781 22.835938 -15.742188 24.015625 -17.734375 C 25.203125 -19.722656 26.796875 -21.316406 28.796875 -22.515625 C 30.804688 -23.722656 33.015625 -24.328125 35.421875 -24.328125 C 37.859375 -24.328125 40.070312 -23.722656 42.0625 -22.515625 C 44.050781 -21.316406 45.632812 -19.722656 46.8125 -17.734375 C 47.988281 -15.742188 48.578125 -13.550781 48.578125 -11.15625 C 48.578125 -8.789062 47.988281 -6.601562 46.8125 -4.59375 C 45.632812 -2.59375 44.050781 -0.992188 42.0625 0.203125 C 40.070312 1.398438 37.859375 2 35.421875 2 C 33.015625 2 30.804688 1.398438 28.796875 0.203125 C 26.796875 -0.992188 25.203125 -2.59375 24.015625 -4.59375 C 22.835938 -6.601562 22.25 -8.789062 22.25 -11.15625 Z M 22.25 -11.15625 "/></g></g></g><g fill="#000000" fill-opacity="1"><g transform="translate(2.850311, 232.03407)"><g/></g></g><g fill="#000000" fill-opacity="1"><g transform="translate(77.442907, 232.03407)"><g/></g></g><g fill="#000000" fill-opacity="1"><g transform="translate(152.035503, 232.03407)"><g/></g></g><g fill="#000000" fill-opacity="1"><g transform="translate(226.628104, 232.03407)"><g/></g></g><g fill="#000000" fill-opacity="1"><g transform="translate(301.293786, 232.03407)"><g><path d="M 17.953125 13.21875 L 3.359375 6.546875 L 53.015625 -96.453125 L 67.46875 -89.78125 Z M 17.953125 13.21875 "/></g></g></g><g fill="#000000" fill-opacity="1"><g transform="translate(375.92413, 232.03407)"><g/></g></g><g fill="#000000" fill-opacity="1"><g transform="translate(450.516726, 232.03407)"><g/></g></g><g fill="#000000" fill-opacity="1"><g transform="translate(525.109322, 232.03407)"><g/></g></g><g fill="#000000" fill-opacity="1"><g transform="translate(599.701923, 232.03407)"><g/></g></g><g fill="#000000" fill-opacity="1"><g transform="translate(674.294514, 232.03407)"><g/></g></g><g fill="#000000" fill-opacity="1"><g transform="translate(748.920047, 232.03407)"><g><path d="M 3.359375 -89.78125 L 17.953125 -96.453125 L 67.46875 6.546875 L 52.890625 13.21875 Z M 3.359375 -89.78125 "/></g></g></g><g fill="#000000" fill-opacity="1"><g transform="translate(2.850311, 356.677651)"><g/></g></g><g fill="#000000" fill-opacity="1"><g transform="translate(77.442907, 356.677651)"><g/></g></g><g fill="#000000" fill-opacity="1"><g transform="translate(152.035503, 356.677651)"><g/></g></g><g fill="#000000" fill-opacity="1"><g transform="translate(226.628104, 356.677651)"><g/></g></g><g fill="#000000" fill-opacity="1"><g transform="translate(301.293786, 356.677651)"><g><path d="M 3.359375 -89.78125 L 17.953125 -96.453125 L 67.46875 6.546875 L 52.890625 13.21875 Z M 3.359375 -89.78125 "/></g></g></g><g fill="#000000" fill-opacity="1"><g transform="translate(375.886382, 356.677651)"><g><path d="M 22.25 -11.15625 C 22.25 -13.550781 22.835938 -15.742188 24.015625 -17.734375 C 25.203125 -19.722656 26.796875 -21.316406 28.796875 -22.515625 C 30.804688 -23.722656 33.015625 -24.328125 35.421875 -24.328125 C 37.859375 -24.328125 40.070312 -23.722656 42.0625 -22.515625 C 44.050781 -21.316406 45.632812 -19.722656 46.8125 -17.734375 C 47.988281 -15.742188 48.578125 -13.550781 48.578125 -11.15625 C 48.578125 -8.789062 47.988281 -6.601562 46.8125 -4.59375 C 45.632812 -2.59375 44.050781 -0.992188 42.0625 0.203125 C 40.070312 1.398438 37.859375 2 35.421875 2 C 33.015625 2 30.804688 1.398438 28.796875 0.203125 C 26.796875 -0.992188 25.203125 -2.59375 24.015625 -4.59375 C 22.835938 -6.601562 22.25 -8.789062 22.25 -11.15625 Z M 22.25 -11.15625 "/></g></g></g><g fill="#000000" fill-opacity="1"><g transform="translate(450.478978, 356.677651)"><g><path d="M 33.890625 -83.890625 C 39.472656 -83.890625 44.328125 -83.140625 48.453125 -81.640625 C 52.585938 -80.140625 56.082031 -77.972656 58.9375 -75.140625 C 61.789062 -72.304688 64.070312 -68.882812 65.78125 -64.875 C 67.5 -60.863281 68.738281 -56.335938 69.5 -51.296875 C 70.269531 -46.253906 70.65625 -40.785156 70.65625 -34.890625 C 70.65625 -24.972656 70.15625 -16.597656 69.15625 -9.765625 C 68.15625 -2.941406 66.316406 2.238281 63.640625 5.78125 C 60.960938 9.320312 57.101562 11.09375 52.0625 11.09375 C 49.820312 11.09375 47.863281 10.660156 46.1875 9.796875 C 44.519531 8.929688 43.113281 7.75 41.96875 6.25 C 40.832031 4.757812 39.925781 3.03125 39.25 1.0625 C 38.582031 -0.90625 38.128906 -2.988281 37.890625 -5.1875 L 37.421875 -5.1875 C 36.554688 -3.226562 35.363281 -1.410156 33.84375 0.265625 C 32.332031 1.941406 30.503906 3.28125 28.359375 4.28125 C 26.210938 5.28125 23.722656 5.78125 20.890625 5.78125 C 16.253906 5.78125 12.535156 4.597656 9.734375 2.234375 C 6.941406 -0.117188 4.925781 -3.332031 3.6875 -7.40625 C 2.445312 -11.476562 1.828125 -16.054688 1.828125 -21.140625 C 1.828125 -30.859375 3.863281 -38.578125 7.9375 -44.296875 C 12.007812 -50.023438 18.335938 -52.890625 26.921875 -52.890625 C 30.066406 -52.890625 33.347656 -52.46875 36.765625 -51.625 C 40.191406 -50.78125 43.519531 -49.472656 46.75 -47.703125 L 46.75 -12.28125 C 46.75 -9.363281 46.914062 -7.050781 47.25 -5.34375 C 47.582031 -3.632812 48.101562 -2.40625 48.8125 -1.65625 C 49.519531 -0.90625 50.40625 -0.53125 51.46875 -0.53125 C 52.613281 -0.53125 53.507812 -1.128906 54.15625 -2.328125 C 54.8125 -3.523438 55.296875 -5.441406 55.609375 -8.078125 C 55.921875 -10.722656 56.125 -14.171875 56.21875 -18.421875 C 56.320312 -22.671875 56.375 -27.828125 56.375 -33.890625 C 56.375 -40.066406 56.03125 -45.546875 55.34375 -50.328125 C 54.65625 -55.109375 53.453125 -59.140625 51.734375 -62.421875 C 50.023438 -65.710938 47.644531 -68.203125 44.59375 -69.890625 C 41.539062 -71.585938 37.65625 -72.4375 32.9375 -72.4375 C 28.726562 -72.4375 24.523438 -71.617188 20.328125 -69.984375 C 16.140625 -68.347656 11.765625 -65.539062 7.203125 -61.5625 L -0.171875 -70.25 C 5.210938 -74.96875 10.628906 -78.421875 16.078125 -80.609375 C 21.535156 -82.796875 27.472656 -83.890625 33.890625 -83.890625 Z M 26.5625 -41.203125 C 23.457031 -41.203125 21.34375 -39.742188 20.21875 -36.828125 C 19.09375 -33.921875 18.53125 -28.691406 18.53125 -21.140625 C 18.53125 -17.554688 18.695312 -14.640625 19.03125 -12.390625 C 19.375 -10.148438 19.96875 -8.507812 20.8125 -7.46875 C 21.65625 -6.425781 22.804688 -5.90625 24.265625 -5.90625 C 26.035156 -5.90625 27.375 -6.347656 28.28125 -7.234375 C 29.1875 -8.117188 29.832031 -9.195312 30.21875 -10.46875 C 30.613281 -11.75 30.890625 -13 31.046875 -14.21875 L 31.046875 -40.078125 C 29.585938 -40.828125 28.09375 -41.203125 26.5625 -41.203125 Z M 26.5625 -41.203125 "/></g></g></g><g fill="#000000" fill-opacity="1"><g transform="translate(525.071579, 356.677651)"><g><path d="M 9.859375 -29.6875 L 9.859375 -44.21875 L 60.984375 -44.21875 L 60.984375 -29.6875 Z M 9.859375 -29.6875 "/></g></g></g><g fill="#000000" fill-opacity="1"><g transform="translate(599.66417, 356.677651)"><g><path d="M 33.890625 -83.890625 C 39.472656 -83.890625 44.328125 -83.140625 48.453125 -81.640625 C 52.585938 -80.140625 56.082031 -77.972656 58.9375 -75.140625 C 61.789062 -72.304688 64.070312 -68.882812 65.78125 -64.875 C 67.5 -60.863281 68.738281 -56.335938 69.5 -51.296875 C 70.269531 -46.253906 70.65625 -40.785156 70.65625 -34.890625 C 70.65625 -24.972656 70.15625 -16.597656 69.15625 -9.765625 C 68.15625 -2.941406 66.316406 2.238281 63.640625 5.78125 C 60.960938 9.320312 57.101562 11.09375 52.0625 11.09375 C 49.820312 11.09375 47.863281 10.660156 46.1875 9.796875 C 44.519531 8.929688 43.113281 7.75 41.96875 6.25 C 40.832031 4.757812 39.925781 3.03125 39.25 1.0625 C 38.582031 -0.90625 38.128906 -2.988281 37.890625 -5.1875 L 37.421875 -5.1875 C 36.554688 -3.226562 35.363281 -1.410156 33.84375 0.265625 C 32.332031 1.941406 30.503906 3.28125 28.359375 4.28125 C 26.210938 5.28125 23.722656 5.78125 20.890625 5.78125 C 16.253906 5.78125 12.535156 4.597656 9.734375 2.234375 C 6.941406 -0.117188 4.925781 -3.332031 3.6875 -7.40625 C 2.445312 -11.476562 1.828125 -16.054688 1.828125 -21.140625 C 1.828125 -30.859375 3.863281 -38.578125 7.9375 -44.296875 C 12.007812 -50.023438 18.335938 -52.890625 26.921875 -52.890625 C 30.066406 -52.890625 33.347656 -52.46875 36.765625 -51.625 C 40.191406 -50.78125 43.519531 -49.472656 46.75 -47.703125 L 46.75 -12.28125 C 46.75 -9.363281 46.914062 -7.050781 47.25 -5.34375 C 47.582031 -3.632812 48.101562 -2.40625 48.8125 -1.65625 C 49.519531 -0.90625 50.40625 -0.53125 51.46875 -0.53125 C 52.613281 -0.53125 53.507812 -1.128906 54.15625 -2.328125 C 54.8125 -3.523438 55.296875 -5.441406 55.609375 -8.078125 C 55.921875 -10.722656 56.125 -14.171875 56.21875 -18.421875 C 56.320312 -22.671875 56.375 -27.828125 56.375 -33.890625 C 56.375 -40.066406 56.03125 -45.546875 55.34375 -50.328125 C 54.65625 -55.109375 53.453125 -59.140625 51.734375 -62.421875 C 50.023438 -65.710938 47.644531 -68.203125 44.59375 -69.890625 C 41.539062 -71.585938 37.65625 -72.4375 32.9375 -72.4375 C 28.726562 -72.4375 24.523438 -71.617188 20.328125 -69.984375 C 16.140625 -68.347656 11.765625 -65.539062 7.203125 -61.5625 L -0.171875 -70.25 C 5.210938 -74.96875 10.628906 -78.421875 16.078125 -80.609375 C 21.535156 -82.796875 27.472656 -83.890625 33.890625 -83.890625 Z M 26.5625 -41.203125 C 23.457031 -41.203125 21.34375 -39.742188 20.21875 -36.828125 C 19.09375 -33.921875 18.53125 -28.691406 18.53125 -21.140625 C 18.53125 -17.554688 18.695312 -14.640625 19.03125 -12.390625 C 19.375 -10.148438 19.96875 -8.507812 20.8125 -7.46875 C 21.65625 -6.425781 22.804688 -5.90625 24.265625 -5.90625 C 26.035156 -5.90625 27.375 -6.347656 28.28125 -7.234375 C 29.1875 -8.117188 29.832031 -9.195312 30.21875 -10.46875 C 30.613281 -11.75 30.890625 -13 31.046875 -14.21875 L 31.046875 -40.078125 C 29.585938 -40.828125 28.09375 -41.203125 26.5625 -41.203125 Z M 26.5625 -41.203125 "/></g></g></g><g fill="#000000" fill-opacity="1"><g transform="translate(674.256761, 356.677651)"><g><path d="M 22.25 -11.15625 C 22.25 -13.550781 22.835938 -15.742188 24.015625 -17.734375 C 25.203125 -19.722656 26.796875 -21.316406 28.796875 -22.515625 C 30.804688 -23.722656 33.015625 -24.328125 35.421875 -24.328125 C 37.859375 -24.328125 40.070312 -23.722656 42.0625 -22.515625 C 44.050781 -21.316406 45.632812 -19.722656 46.8125 -17.734375 C 47.988281 -15.742188 48.578125 -13.550781 48.578125 -11.15625 C 48.578125 -8.789062 47.988281 -6.601562 46.8125 -4.59375 C 45.632812 -2.59375 44.050781 -0.992188 42.0625 0.203125 C 40.070312 1.398438 37.859375 2 35.421875 2 C 33.015625 2 30.804688 1.398438 28.796875 0.203125 C 26.796875 -0.992188 25.203125 -2.59375 24.015625 -4.59375 C 22.835938 -6.601562 22.25 -8.789062 22.25 -11.15625 Z M 22.25 -11.15625 "/></g></g></g><g fill="#000000" fill-opacity="1"><g transform="translate(748.849371, 356.677651)"><g><path d="M 17.953125 13.21875 L 3.359375 6.546875 L 53.015625 -96.453125 L 67.46875 -89.78125 Z M 17.953125 13.21875 "/></g></g></g><g fill="#000000" fill-opacity="1"><g transform="translate(2.850311, 481.321232)"><g/></g></g><g fill="#000000" fill-opacity="1"><g transform="translate(77.442907, 481.321232)"><g/></g></g><g fill="#000000" fill-opacity="1"><g transform="translate(152.035503, 481.321232)"><g/></g></g><g fill="#000000" fill-opacity="1"><g transform="translate(226.628104, 481.321232)"><g/></g></g><g fill="#000000" fill-opacity="1"><g transform="translate(301.293786, 481.321232)"><g><path d="M 17.953125 13.21875 L 3.359375 6.546875 L 53.015625 -96.453125 L 67.46875 -89.78125 Z M 17.953125 13.21875 "/></g></g></g><g fill="#000000" fill-opacity="1"><g transform="translate(375.886382, 481.321232)"><g><path d="M 47.046875 -73.4375 L 19.1875 -84.53125 L 26.453125 -98.515625 L 52.1875 -82.875 Z M 47.046875 -73.4375 "/></g></g></g><g fill="#000000" fill-opacity="1"><g transform="translate(450.478978, 481.321232)"><g><path d="M 3.359375 -89.78125 L 17.953125 -96.453125 L 67.46875 6.546875 L 52.890625 13.21875 Z M 3.359375 -89.78125 "/></g></g></g><g fill="#000000" fill-opacity="1"><g transform="translate(525.071579, 481.321232)"><g><path d="M 5.90625 21.953125 L 5.90625 7.3125 L 64.9375 7.3125 L 64.9375 21.953125 Z M 5.90625 21.953125 "/></g></g></g><g fill="#000000" fill-opacity="1"><g transform="translate(599.66417, 481.321232)"><g><path d="M 17.953125 13.21875 L 3.359375 6.546875 L 53.015625 -96.453125 L 67.46875 -89.78125 Z M 17.953125 13.21875 "/></g></g></g><g fill="#000000" fill-opacity="1"><g transform="translate(674.256761, 481.321232)"><g><path d="M 47.046875 -73.4375 L 19.1875 -84.53125 L 26.453125 -98.515625 L 52.1875 -82.875 Z M 47.046875 -73.4375 "/></g></g></g><g fill="#000000" fill-opacity="1"><g transform="translate(748.849371, 481.321232)"><g><path d="M 3.359375 -89.78125 L 17.953125 -96.453125 L 67.46875 6.546875 L 52.890625 13.21875 Z M 3.359375 -89.78125 "/></g></g></g><g fill="#000000" fill-opacity="1"><g transform="translate(2.850311, 605.964813)"><g/></g></g><g fill="#000000" fill-opacity="1"><g transform="translate(77.442907, 605.964813)"><g/></g></g><g fill="#000000" fill-opacity="1"><g transform="translate(152.035503, 605.964813)"><g/></g></g><g fill="#000000" fill-opacity="1"><g transform="translate(226.663441, 605.964813)"><g><path d="M 17.953125 13.21875 L 3.359375 6.546875 L 53.015625 -96.453125 L 67.46875 -89.78125 Z M 17.953125 13.21875 "/></g></g></g><g fill="#000000" fill-opacity="1"><g transform="translate(301.256037, 605.964813)"><g><path d="M 17.953125 13.21875 L 3.359375 6.546875 L 53.015625 -96.453125 L 67.46875 -89.78125 Z M 17.953125 13.21875 "/></g></g></g><g fill="#000000" fill-opacity="1"><g transform="translate(375.92413, 605.964813)"><g/></g></g><g fill="#000000" fill-opacity="1"><g transform="translate(450.516726, 605.964813)"><g/></g></g><g fill="#000000" fill-opacity="1"><g transform="translate(525.184818, 605.964813)"><g><path d="M 5.90625 21.953125 L 5.90625 7.3125 L 64.9375 7.3125 L 64.9375 21.953125 Z M 5.90625 21.953125 "/></g></g></g><g fill="#000000" fill-opacity="1"><g transform="translate(599.815163, 605.964813)"><g/></g></g><g fill="#000000" fill-opacity="1"><g transform="translate(674.407759, 605.964813)"><g/></g></g><g fill="#000000" fill-opacity="1"><g transform="translate(749.075851, 605.964813)"><g><path d="M 3.359375 -89.78125 L 17.953125 -96.453125 L 67.46875 6.546875 L 52.890625 13.21875 Z M 3.359375 -89.78125 "/></g></g></g><g fill="#000000" fill-opacity="1"><g transform="translate(823.668447, 605.964813)"><g><path d="M 3.359375 -89.78125 L 17.953125 -96.453125 L 67.46875 6.546875 L 52.890625 13.21875 Z M 3.359375 -89.78125 "/></g></g></g><g fill="#000000" fill-opacity="1"><g transform="translate(2.850311, 730.608395)"><g/></g></g><g fill="#000000" fill-opacity="1"><g transform="translate(77.442907, 730.608395)"><g/></g></g><g fill="#000000" fill-opacity="1"><g transform="translate(152.110999, 730.608395)"><g><path d="M 44.03125 -95.625 L 44.03125 12.390625 L 26.6875 12.390625 L 26.6875 -95.625 Z M 44.03125 -95.625 "/></g></g></g><g fill="#000000" fill-opacity="1"><g transform="translate(226.703595, 730.608395)"><g/></g></g><g fill="#000000" fill-opacity="1"><g transform="translate(301.296192, 730.608395)"><g><path d="M 3.359375 -89.78125 L 17.953125 -96.453125 L 67.46875 6.546875 L 52.890625 13.21875 Z M 3.359375 -89.78125 "/></g></g></g><g fill="#000000" fill-opacity="1"><g transform="translate(375.92413, 730.608395)"><g/></g></g><g fill="#000000" fill-opacity="1"><g transform="translate(450.516726, 730.608395)"><g/></g></g><g fill="#000000" fill-opacity="1"><g transform="translate(525.109322, 730.608395)"><g/></g></g><g fill="#000000" fill-opacity="1"><g transform="translate(599.701923, 730.608395)"><g/></g></g><g fill="#000000" fill-opacity="1"><g transform="translate(674.294514, 730.608395)"><g/></g></g><g fill="#000000" fill-opacity="1"><g transform="translate(748.920047, 730.608395)"><g><path d="M 40.078125 -41.328125 C 40.078125 -46.203125 39.65625 -50.742188 38.8125 -54.953125 C 37.96875 -59.171875 36.640625 -63.242188 34.828125 -67.171875 C 33.015625 -71.109375 30.691406 -75.054688 27.859375 -79.015625 C 25.023438 -82.972656 21.625 -87.113281 17.65625 -91.4375 L 28.515625 -101.234375 C 34.734375 -95.878906 40.125 -90.234375 44.6875 -84.296875 C 49.25 -78.359375 52.769531 -71.863281 55.25 -64.8125 C 57.726562 -57.769531 58.96875 -49.941406 58.96875 -41.328125 C 58.96875 -32.703125 57.726562 -24.867188 55.25 -17.828125 C 52.769531 -10.785156 49.25 -4.296875 44.6875 1.640625 C 40.125 7.585938 34.734375 13.238281 28.515625 18.59375 L 17.65625 8.796875 C 23.320312 2.660156 27.785156 -2.972656 31.046875 -8.109375 C 34.316406 -13.253906 36.640625 -18.453125 38.015625 -23.703125 C 39.390625 -28.953125 40.078125 -34.828125 40.078125 -41.328125 Z M 40.078125 -41.328125 "/></g></g></g><g fill="#000000" fill-opacity="1"><g transform="translate(823.512643, 730.608395)"><g><path d="M 44.03125 -95.625 L 44.03125 12.390625 L 26.6875 12.390625 L 26.6875 -95.625 Z M 44.03125 -95.625 "/></g></g></g><g fill="#000000" fill-opacity="1"><g transform="translate(898.105239, 730.608395)"><g><path d="M 5.90625 21.953125 L 5.90625 7.3125 L 64.9375 7.3125 L 64.9375 21.953125 Z M 5.90625 21.953125 "/></g></g></g><g fill="#000000" fill-opacity="1"><g transform="translate(2.850311, 855.251976)"><g/></g></g><g fill="#000000" fill-opacity="1"><g transform="translate(77.480655, 855.251976)"><g><path d="M 17.953125 13.21875 L 3.359375 6.546875 L 53.015625 -96.453125 L 67.46875 -89.78125 Z M 17.953125 13.21875 "/></g></g></g><g fill="#000000" fill-opacity="1"><g transform="translate(152.073251, 855.251976)"><g><path d="M 47.046875 -73.4375 L 19.1875 -84.53125 L 26.453125 -98.515625 L 52.1875 -82.875 Z M 47.046875 -73.4375 "/></g></g></g><g fill="#000000" fill-opacity="1"><g transform="translate(226.665847, 855.251976)"><g><path d="M 3.359375 -89.78125 L 17.953125 -96.453125 L 67.46875 6.546875 L 52.890625 13.21875 Z M 3.359375 -89.78125 "/></g></g></g><g fill="#000000" fill-opacity="1"><g transform="translate(301.258448, 855.251976)"><g><path d="M 5.90625 21.953125 L 5.90625 7.3125 L 64.9375 7.3125 L 64.9375 21.953125 Z M 5.90625 21.953125 "/></g></g></g><g fill="#000000" fill-opacity="1"><g transform="translate(375.851039, 855.251976)"><g><path d="M 47.046875 -73.4375 L 19.1875 -84.53125 L 26.453125 -98.515625 L 52.1875 -82.875 Z M 47.046875 -73.4375 "/></g></g></g><g fill="#000000" fill-opacity="1"><g transform="translate(450.443631, 855.251976)"><g><path d="M 16.46875 -72.3125 L 62.625 -43.734375 L 62.625 -30.40625 L 16.640625 -1.828125 L 8.203125 -14.515625 L 46.578125 -37.078125 L 8.203125 -58.90625 Z M 16.46875 -72.3125 "/></g></g></g><g fill="#000000" fill-opacity="1"><g transform="translate(525.106916, 855.251976)"><g/></g></g><g fill="#000000" fill-opacity="1"><g transform="translate(599.699512, 855.251976)"><g/></g></g><g fill="#000000" fill-opacity="1"><g transform="translate(674.367605, 855.251976)"><g><path d="M 54.484375 -72.3125 L 62.625 -59.4375 L 24.328125 -37.078125 L 62.625 -15.109375 L 54.1875 -1.828125 L 8.203125 -30.40625 L 8.203125 -43.625 Z M 54.484375 -72.3125 "/></g></g></g><g fill="#000000" fill-opacity="1"><g transform="translate(748.960201, 855.251976)"><g><path d="M 5.90625 21.953125 L 5.90625 7.3125 L 64.9375 7.3125 L 64.9375 21.953125 Z M 5.90625 21.953125 "/></g></g></g><g fill="#000000" fill-opacity="1"><g transform="translate(823.552797, 855.251976)"><g><path d="M 17.953125 13.21875 L 3.359375 6.546875 L 53.015625 -96.453125 L 67.46875 -89.78125 Z M 17.953125 13.21875 "/></g></g></g><g fill="#000000" fill-opacity="1"><g transform="translate(898.145398, 855.251976)"><g/></g></g><g fill="#000000" fill-opacity="1"><g transform="translate(972.737989, 855.251976)"><g><path d="M 3.359375 -89.78125 L 17.953125 -96.453125 L 67.46875 6.546875 L 52.890625 13.21875 Z M 3.359375 -89.78125 "/></g></g></g><g fill="#000000" fill-opacity="1"><g transform="translate(2.850311, 979.895557)"><g/></g></g><g fill="#000000" fill-opacity="1"><g transform="translate(77.480655, 979.895557)"><g><path d="M 3.359375 -89.78125 L 17.953125 -96.453125 L 67.46875 6.546875 L 52.890625 13.21875 Z M 3.359375 -89.78125 "/></g></g></g><g fill="#000000" fill-opacity="1"><g transform="translate(152.073251, 979.895557)"><g><path d="M 5.90625 21.953125 L 5.90625 7.3125 L 64.9375 7.3125 L 64.9375 21.953125 Z M 5.90625 21.953125 "/></g></g></g><g fill="#000000" fill-opacity="1"><g transform="translate(226.665847, 979.895557)"><g><path d="M 5.90625 21.953125 L 5.90625 7.3125 L 64.9375 7.3125 L 64.9375 21.953125 Z M 5.90625 21.953125 "/></g></g></g><g fill="#000000" fill-opacity="1"><g transform="translate(301.258448, 979.895557)"><g><path d="M 17.953125 13.21875 L 3.359375 6.546875 L 53.015625 -96.453125 L 67.46875 -89.78125 Z M 17.953125 13.21875 "/></g></g></g><g fill="#000000" fill-opacity="1"><g transform="translate(375.851039, 979.895557)"><g><path d="M 28.75 -54.609375 L 26.5 -87.609375 L 44.21875 -87.609375 L 41.96875 -54.609375 Z M 28.75 -54.609375 "/></g></g></g><g fill="#000000" fill-opacity="1"><g transform="translate(450.443631, 979.895557)"><g><path d="M 9.859375 -29.6875 L 9.859375 -44.21875 L 60.984375 -44.21875 L 60.984375 -29.6875 Z M 9.859375 -29.6875 "/></g></g></g><g fill="#000000" fill-opacity="1"><g transform="translate(525.036241, 979.895557)"><g><path d="M 9.859375 -29.6875 L 9.859375 -44.21875 L 60.984375 -44.21875 L 60.984375 -29.6875 Z M 9.859375 -29.6875 "/></g></g></g><g fill="#000000" fill-opacity="1"><g transform="translate(599.628851, 979.895557)"><g><path d="M 9.859375 -29.6875 L 9.859375 -44.21875 L 60.984375 -44.21875 L 60.984375 -29.6875 Z M 9.859375 -29.6875 "/></g></g></g><g fill="#000000" fill-opacity="1"><g transform="translate(674.221461, 979.895557)"><g><path d="M 28.75 -54.609375 L 26.5 -87.609375 L 44.21875 -87.609375 L 41.96875 -54.609375 Z M 28.75 -54.609375 "/></g></g></g><g fill="#000000" fill-opacity="1"><g transform="translate(748.814071, 979.895557)"><g><path d="M 3.359375 -89.78125 L 17.953125 -96.453125 L 67.46875 6.546875 L 52.890625 13.21875 Z M 3.359375 -89.78125 "/></g></g></g><g fill="#000000" fill-opacity="1"><g transform="translate(823.406681, 979.895557)"><g><path d="M 5.90625 21.953125 L 5.90625 7.3125 L 64.9375 7.3125 L 64.9375 21.953125 Z M 5.90625 21.953125 "/></g></g></g><g fill="#000000" fill-opacity="1"><g transform="translate(897.999292, 979.895557)"><g><path d="M 5.90625 21.953125 L 5.90625 7.3125 L 64.9375 7.3125 L 64.9375 21.953125 Z M 5.90625 21.953125 "/></g></g></g><g fill="#000000" fill-opacity="1"><g transform="translate(972.591902, 979.895557)"><g><path d="M 17.953125 13.21875 L 3.359375 6.546875 L 53.015625 -96.453125 L 67.46875 -89.78125 Z M 17.953125 13.21875 "/></g></g></g><g fill="#000000" fill-opacity="1"><g transform="translate(1047.207717, 979.895557)"><g/></g></g></svg>